<?xml version="1.0" encoding="UTF-8"?>
<svg width="141px" height="111px" viewBox="0 0 141 111" version="1.1" xmlns="http://www.w3.org/2000/svg" xmlns:xlink="http://www.w3.org/1999/xlink">
    <!-- Generator: Sketch 59.1 (86144) - https://sketch.com -->
    <title>undraw_empty_xct9</title>
    <desc>Created with Sketch.</desc>
    <defs>
        <linearGradient x1="0.0418254486%" y1="50.0117741%" x2="100%" y2="50.0117741%" id="linearGradient-1">
            <stop stop-color="#808080" stop-opacity="0.25" offset="0%"></stop>
            <stop stop-color="#808080" stop-opacity="0.12" offset="54%"></stop>
            <stop stop-color="#808080" stop-opacity="0.1" offset="100%"></stop>
        </linearGradient>
    </defs>
    <g id="Page-1" stroke="none" stroke-width="1" fill="none" fill-rule="evenodd">
        <g id="Invoice-Docket-Attachment-Empty" transform="translate(-118.000000, -351.000000)">
            <g id="undraw_empty_xct9" transform="translate(118.000000, 351.000000)">
                <ellipse id="Oval" fill="#4EA5D9" opacity="0.1" cx="49.5" cy="104.5" rx="24.5" ry="4.5"></ellipse>
                <path d="M81.9222845,15.6613549 C72.8830328,15.3464312 64.2739556,12.408081 56.0531528,9.19417257 C47.83235,5.98026414 39.6897608,2.42050205 30.866993,0.717946005 C25.1923206,-0.377257262 18.7019926,-0.533313183 14.1306899,2.52594523 C9.72978103,5.47835455 8.30797042,10.5607163 7.54399164,15.2803535 C6.96856338,18.8316801 6.63056911,22.5699927 8.20601347,25.8949679 C9.30100318,28.2034709 11.2423752,30.1436255 12.5859723,32.3551207 C17.2606286,40.0482559 13.9561061,49.5353311 8.89177871,57.047104 C6.51743879,60.5703124 3.75901448,63.9360591 1.92518606,67.6828071 C0.0913576413,71.4295551 -0.756421376,75.7372609 0.848353073,79.5697694 C2.43776415,83.3657242 6.22693132,86.2112844 10.331746,88.214705 C18.6684725,92.2848122 28.488463,93.448905 38.0710196,94.1096823 C59.2766684,95.569016 80.5940508,94.9377628 101.855566,94.3036978 C109.724408,94.0703168 117.62677,93.8327182 125.367118,92.6081713 C129.66607,91.9277112 134.103293,90.847973 137.224851,88.2414173 C141.185809,84.933313 142.167668,79.3321707 139.512598,75.1847386 C135.060012,68.225488 122.752551,66.4976256 119.636579,59.0308419 C117.924261,54.9199634 119.682669,50.342323 122.172933,46.5309032 C127.513801,38.3527294 136.465062,31.1783747 136.93574,21.8318904 C137.259768,15.412509 132.956626,8.98328619 126.302888,5.94511641 C119.329312,2.76073207 109.657368,3.16141619 104.514827,8.43216978 C99.2144625,13.8533557 89.9042567,15.9411308 81.9222845,15.6613549 Z" id="Path" fill="#4EA5D9" opacity="0.1"></path>
                <path d="M75,50.4146945 L70.7820808,47.5060375 L70.7820808,47.5060375 L72.9096306,44.2663711 L61.7692564,43.3578559 L57.7661577,46.5242777 L52.7550549,43.6508344 L48.5756932,44.1649554 L48.5261193,43.0381149 C48.4743874,41.8633806 48.3589966,40.6924854 48.1804785,39.5308239 C48.1983802,39.1786862 48.2107737,38.7744322 48.2093966,38.3349644 C48.2093966,36.4827203 47.9642809,34.0276166 46.8874239,32.3908808 L47.1352938,30.1118459 L45.1247936,27.6820961 C45.4476642,27.024246 45.815805,26.3906823 46.2264376,25.7861869 C46.2952903,25.6847713 46.364143,25.5861727 46.438504,25.4903913 C49.0480231,25.2974199 51.1067202,23.102898 51.1067202,20.4196091 C51.1067202,20.2956566 51.1067202,20.1717042 51.0929496,20.0491602 C51.0929496,19.999861 51.0833102,19.9491532 51.077802,19.8998539 C51.3325572,20.0407089 51.5900664,20.181564 51.8475757,20.3224191 C51.8957726,20.3928466 51.9508548,20.4632741 52.0114453,20.5463786 L52.0114453,20.5463786 L52.0238387,20.5618727 L52.1009538,20.6590627 L52.1257408,20.6886422 C52.1532819,20.7224474 52.1822001,20.7548441 52.2111182,20.7886493 L52.230397,20.8111861 C52.3033809,20.8942906 52.380496,20.9788037 52.4631193,21.0619081 C52.4729554,21.0700952 52.4821628,21.0790423 52.4906604,21.0886706 L52.5939395,21.1872691 L52.6228576,21.2140316 C52.7109891,21.294319 52.8046289,21.3717893 52.8982686,21.4450339 L52.9285638,21.4675707 L53.0469905,21.5506752 L53.0855481,21.5760291 C53.1309909,21.6042001 53.1778108,21.6337797 53.2232536,21.6605422 L53.2397782,21.670402 C53.2934834,21.6999816 53.3485656,21.7281526 53.4036478,21.754915 L53.4311889,21.7661835 C53.4780087,21.7868422 53.5239106,21.8065619 53.5688944,21.8253426 L53.6115831,21.8408366 C53.65978,21.8577392 53.7065999,21.8732333 53.7561738,21.8873188 L53.786469,21.8957701 C53.8470595,21.9112642 53.9076499,21.9239411 53.9696173,21.933801 L53.9765026,21.933801 C54.0348524,21.9434558 54.0937096,21.9495702 54.1527656,21.9521121 L54.1927002,21.9521121 C54.2454512,21.9549365 54.2983106,21.9549365 54.3510616,21.9521121 L54.3854879,21.9521121 C54.4515414,21.9482211 54.5173024,21.9402246 54.5824068,21.9281668 C54.8905149,21.8867293 55.18635,21.7781771 55.4499514,21.6098343 C55.5170643,21.5639286 55.5765698,21.5073418 55.6262144,21.4422168 C55.9016254,21.0731765 55.5986733,20.6689225 55.5986733,20.6689225 L55.5986733,20.6689225 C55.491263,20.4069321 54.7944732,20.222412 54.7944732,20.222412 C54.7944732,20.222412 52.5911854,19.2815002 52.5911854,18.5321512 C52.5911854,17.7828023 52.0403634,13.8952026 46.3545037,13.0064071 C46.3545037,13.0064071 42.6557342,12.793716 41.6160577,14.8192118 L41.5940248,15.0558483 C41.2883186,15.2516368 41.0349405,15.6446225 40.7333655,15.7601236 C40.6030741,15.7887478 40.4774229,15.836174 40.3601836,15.9009787 L40.3601836,15.8742162 L40.3601836,15.8742162 C40.3253693,15.9053617 40.2968354,15.9431607 40.2761833,15.9854917 C40.2114041,16.1173337 40.1725706,16.2609059 40.1618877,16.4080569 C40.1308641,16.5878112 40.069843,16.7607675 39.9814935,16.9193608 C39.9568615,16.9644255 39.9292565,17.0077213 39.8988702,17.0489474 L39.8988702,17.0489474 L39.8754603,17.0869783 C40.0353335,17.0997222 40.1958675,17.0731596 40.343659,17.009508 C40.3203698,17.202352 40.2741251,17.3915615 40.2059535,17.5729283 C40.3847235,17.5788395 40.5504455,17.4775724 40.6300864,17.3137549 L40.6300864,17.3024865 L40.6479881,17.2771326 C40.6826165,17.2119274 40.7112004,17.1435491 40.7333655,17.0728928 L40.7182179,17.0897954 C40.745759,16.9982396 40.770546,16.9052753 40.8008412,16.815128 C40.8147211,16.7643501 40.8375917,16.716608 40.8683169,16.674273 C40.9428538,16.5974132 41.048653,16.5613402 41.1533672,16.577083 L41.096908,17.7982964 L41.121695,17.7982964 C41.0885265,17.8871287 41.0479849,17.9728938 41.0005142,18.0546526 C40.8049724,18.3786192 40.4496922,18.5997617 40.318872,18.9547164 C40.2624665,19.1259148 40.2409094,19.3071094 40.2555274,19.4871486 C40.2555274,19.5927898 40.2679209,19.6998397 40.2761833,19.805481 L40.2761833,19.7970297 C40.295462,20.0787398 40.3009703,20.3463644 40.1522483,20.5731411 C40.0503463,20.7280816 39.8864767,20.8449913 39.8300175,21.0210602 C39.8143994,21.0701214 39.807406,21.1216258 39.8093617,21.1731836 C39.82041,21.3275411 39.8519114,21.4796473 39.9030014,21.6253284 C39.9035985,21.6225444 39.9035985,21.6196611 39.9030014,21.6168771 C39.9373462,21.724041 39.9453858,21.8382025 39.9264113,21.949295 C39.8644438,22.2310052 39.5298195,22.4662331 39.5463442,22.7352663 C39.5453994,22.770649 39.5505262,22.8059272 39.5614918,22.839499 C39.6258746,22.9709066 39.7373607,23.0718234 39.8727062,23.1212092 C40.085017,23.2447016 40.3288545,23.2996906 40.5722501,23.2789668 C40.6634755,23.2621078 40.7516855,23.2312405 40.8338905,23.187411 C40.7374967,23.4141877 40.6383487,23.6381472 40.5378237,23.8508384 C40.5226761,23.8846436 40.5061514,23.9184488 40.4896268,23.952254 C40.4896268,23.952254 39.6386068,23.3705226 39.1552606,24.5565222 C39.0141609,24.8029853 38.9132335,25.071303 38.8564397,25.3509448 C38.8322244,25.4628064 38.7981166,25.5721845 38.7545376,25.6777285 C38.5399559,26.049311 38.2188043,26.3443682 37.8346649,26.5228589 C36.8486936,26.9848635 32.8662508,32.0655056 32.796021,33.3810919 C32.7615552,33.8946415 32.6766684,34.403342 32.5426429,34.8995094 C32.2291479,36.0679595 32.1485997,37.2889679 32.3057894,38.489905 C32.3549957,38.8780272 32.4365386,39.2611383 32.5495281,39.6350566 C32.972284,40.9492343 33.2545803,43.401521 33.2545803,43.401521 L33.7117625,47.658161 C33.6947907,48.2456562 33.7196433,48.8336359 33.7861235,49.4174407 C33.3193018,49.9625498 31.4451301,52.2345419 32.1611987,52.8528956 C32.7120206,53.3402542 33.6759591,53.2599668 34.2171416,53.1599597 C33.7613365,54.3135626 33.0438909,56.3193387 32.9488741,57.6969012 C32.8111686,59.735074 33.1843505,62.4352655 33.775107,63.4719588 C34.3658636,64.508652 36.3350521,67.1679956 36.3350521,67.1679956 C36.3350521,67.1679956 36.2427894,70.8161417 36.9464645,72.1415878 C37.6501395,73.467034 37.9338129,76.2165248 37.9338129,76.2165248 C37.9338129,76.2165248 38.5906681,78.5378162 38.2615519,79.3913979 C37.9324358,80.2449795 38.8715873,80.9548891 37.8856159,81.522535 C36.8996446,82.0901809 35.6382623,94.8840461 35.6382623,94.8840461 C35.6382623,94.8840461 35.1301291,103.269148 35.6382623,103.695939 C35.6654531,103.716158 35.6945091,103.733613 35.7250168,103.748055 L35.7250168,106.565156 C35.7250168,106.565156 35.3724907,107.156748 36.8060049,107.276474 C37.787845,107.356762 40.570873,107.538465 42.2219619,107.644106 L43.5012459,107.725802 C43.5012459,107.725802 46.5307667,108.342747 47.8692641,107.725802 C49.2077614,107.108857 51.5804271,107.122942 51.227901,105.493249 C51.1811562,105.271469 51.1185616,105.053498 51.0406215,104.84109 C50.6536691,103.829751 49.9968139,103.71425 48.7863826,103.43254 C48.7161528,103.417046 48.6486771,103.40296 48.5867097,103.391692 C47.3115568,103.164915 46.8929321,103.772001 46.1782406,102.981804 C45.5571889,102.298657 43.579738,101.533814 42.9063582,101.291543 C42.9228828,101.240835 42.9435386,101.191536 42.9600633,101.139419 C42.7693825,101.10633 42.5920338,101.017827 42.4491759,100.884472 L44.2737737,101.00279 L45.36027,101.071809 C45.36027,101.071809 47.9353627,101.597198 49.0783183,101.071809 C50.2212739,100.54642 52.231774,100.560505 51.9315761,99.1758999 C51.892033,98.9872225 51.8391059,98.801742 51.7732148,98.6209309 C51.4440986,97.7617151 50.8850143,97.6673422 49.8563543,97.4292971 C49.7971409,97.4166202 49.7420588,97.4039432 49.6869766,97.3940833 C48.6032343,97.2011119 48.2479542,97.7166414 47.640673,97.0461713 C47.1201462,96.4742998 45.4773197,95.8334093 44.8865631,95.6150839 C44.8865631,95.3023857 44.4734466,94.8572837 44.2131833,94.4107731 C43.9074771,93.8896094 44.4720696,92.0655364 44.4720696,92.0655364 L44.7943004,84.4973939 C44.9170105,84.4414867 45.0468126,84.4035521 45.1798758,84.3847098 C45.1798758,84.3847098 46.6367999,82.9620737 46.3076838,81.4464732 C46.2406257,80.9880742 46.2056513,80.5253626 46.2030276,80.061868 C46.6822427,79.6069061 47.341852,78.9350275 47.5291315,78.5209136 C47.8348377,77.8462178 47.5291315,74.5769719 47.5291315,74.5769719 L47.5291315,62.0760851 L49.9665187,62.3282157 L52.1780689,62.5606265 L52.8514487,62.631054 L55.0629989,62.8592392 L60.1457086,63.3846286 L64.7257933,62.4972417 L66.7073753,62.114116 L70.7820808,61.3253276 L70.7820808,51.1274211 L75,50.4146945 Z M41.4535652,16.6221566 L41.1698919,16.5911685 C41.2635316,16.5953941 41.3626796,16.6137053 41.4535652,16.6221566 Z" id="Shape" fill="url(#linearGradient-1)" fill-rule="nonzero"></path>
                <path d="M64.8798318,56.834331 C63.4770685,58.7437783 58.4341346,57.732345 58.4341346,57.732345 L54.5260362,54.2537083 L54,53.7826846 L54.8823381,52 C54.8823381,52 55.1628907,52.073389 55.6440385,52.2041547 C58.1704151,52.902017 66.063764,55.2291143 64.8798318,56.834331 Z" id="Path" fill="#EFB7B9"></path>
                <path d="M55,52.2717584 C54.8948718,53.0319716 54.6068376,54.1705151 54.3205128,55 L54,54.3730018 L54.5376068,52 C54.5376068,52 54.7102564,52.0976909 55,52.2717584 Z" id="Path" fill="#000000" opacity="0.1"></path>
                <path d="M42.5110943,31.0587909 C42.5110943,31.0587909 38.8256135,32.6525271 39.0064432,36.5662059 C39.1365566,39.0875831 39.4183317,41.5993423 39.850315,44.0885288 C39.850315,44.0885288 39.096858,49.9779367 42.2341092,51.4961138 C45.3713604,53.014291 48.2746811,54.2624145 48.2746811,54.2624145 C48.2746811,54.2624145 53.1829149,54.7773354 53.7928562,54.9900201 C54.4027975,55.2027049 56.3086848,51.9508674 55.9570716,51.4443419 C55.6054583,50.9378164 51.1005034,49.8757921 50.526441,49.0306501 C49.9523785,48.1855082 48.6248592,47.6635911 48.6248592,47.6635911 C48.6248592,47.6635911 47.2542851,46.8548294 47.161,46.1244253 C47.0677148,45.3940212 47.4293742,44.8497162 47.5212242,44.5292899 C47.6130741,44.2088636 47.8455694,41.1151404 47.8455694,41.1151404 C47.8455694,41.1151404 49.3926677,30.1031089 42.5110943,31.0587909 Z" id="Path" fill="#DCE6F2"></path>
                <path d="M45,44 C45,44 39.5043265,44.970927 40.0362665,47 C40.0362665,47 42.0314315,44.8096544 45,44 Z" id="Path" fill="#000000" opacity="0.1"></path>
                <path d="M45,45 C45,45 42.5895311,46.8993978 43.0611717,46.9967104 C43.5328122,47.094023 45,45 45,45 Z" id="Path" fill="#000000" opacity="0.1"></path>
                <path d="M45.9332307,46 C45.9332307,46 44.3382553,47.0688798 45.3185966,46.9964815 C46.2989379,46.9240833 45.9332307,46 45.9332307,46 Z" id="Path" fill="#000000" opacity="0.1"></path>
                <path d="M55.7108309,52.7483919 L55.4128812,52.6605866 C55.4978108,52.3727005 55.5214797,52.1395127 55.4518653,52.0315553 C55.1107546,51.5104814 50.7431455,50.4193928 50.1876224,49.5485371 C49.6320993,48.6776814 48.3428402,48.1422131 48.3428402,48.1422131 C48.3428402,48.1422131 47.0132046,47.310222 46.9227059,46.5588391 C46.8322071,45.8074562 47.1830638,45.2475176 47.2721703,44.9178879 C47.3612768,44.5882582 47.5868275,41.4042371 47.5868275,41.4042371 C47.5868275,41.4042371 49.0835376,30.0773555 42.4075143,31.0604868 C42.4075143,31.0604868 38.8321174,32.701438 39.0061535,36.7275262 C39.1324284,39.3213854 39.4062545,41.905313 39.8262114,44.4659066 C39.8262114,44.4659066 39.0952599,50.5244712 42.1388026,52.0862537 C45.1823453,53.6480362 47.9989449,54.9320086 47.9989449,54.9320086 C47.9989449,54.9320086 52.7591793,55.4602797 53.3522942,55.6805126 C53.5764526,55.7639996 53.9816086,55.3336098 54.3784108,54.7420037 L54.6039616,54.9593578 L58.4828773,58.7105146 C58.4828773,58.7105146 63.4881545,59.8030427 64.880443,57.7432171 C66.0569268,56.0101423 58.2239117,53.4997748 55.7108309,52.7483919 Z" id="Path" fill="#000000" opacity="0.1"></path>
                <path d="M39.993664,15.9305154 C39.8320757,15.9614776 39.6773087,16.0200773 39.5364465,16.1036324 C39.3713861,16.2379194 39.3713861,16.4676634 39.3301209,16.6682849 C39.2816464,16.947364 39.1687302,17.2118892 39,17.4416486 C39.187825,17.4551551 39.3762327,17.424653 39.5496514,17.3526633 C39.5213988,17.5741097 39.4659777,17.7914036 39.3845909,17.9998295 C39.5946608,18.0050673 39.7883913,17.889232 39.8797723,17.703751 C39.9671098,17.5214357 40.0362083,17.3312499 40.0860979,17.1358626 C40.1016019,17.0774235 40.1285071,17.0224811 40.1653269,16.974071 C40.3171825,16.7977182 40.5994359,16.8769961 40.8338218,16.8996469 C41.2310459,16.9324764 41.6152044,16.7516331 41.8373894,16.4272155 C42.0866307,16.0567128 42.1014862,15.1086142 41.5072685,15.0083034 C40.8866411,14.9079927 40.5003996,15.746073 39.993664,15.9305154 Z" id="Path" fill="#965D7B"></path>
                <g id="Group" opacity="0.1" transform="translate(39.000000, 17.000000)" fill="#000000">
                    <path d="M0.516315789,0.285 C0.530526316,0.203333333 0.54,0.118333333 0.557368421,0.0366666667 L0.557368421,0.0366666667 C0.407368421,0.175 0.399473684,0.41 0.36,0.618333333 C0.340111813,0.738535867 0.308904427,0.856342281 0.266842105,0.97 C0.39116605,0.760835086 0.47588751,0.528208545 0.516315789,0.285 L0.516315789,0.285 Z" id="Path"></path>
                    <path d="M0.566842105,1.66166667 C0.645469038,1.44721848 0.698508163,1.2232755 0.724736842,0.995 C0.566643127,1.06524018 0.395480226,1.09658705 0.224210526,1.08666667 C0.174356302,1.2038859 0.113527664,1.315552 0.0426315789,1.42 C0.221670275,1.43462345 0.401422777,1.40376233 0.566842105,1.33 C0.540613426,1.5582755 0.487574301,1.78221848 0.408947368,1.99666667 C0.609790059,2.0016383 0.794909865,1.88244171 0.882631579,1.69166667 C0.921968814,1.61591201 0.953719269,1.53603609 0.977368421,1.45333333 C0.883215743,1.59222887 0.728411659,1.67078863 0.566842105,1.66166667 L0.566842105,1.66166667 Z" id="Path"></path>
                    <path d="M1.95315789,0.528333333 C1.72894737,0.505 1.45736842,0.423333333 1.31210526,0.605 C1.27752486,0.655275236 1.25184808,0.711740388 1.23631579,0.771666667 C1.22210526,0.815 1.20947368,0.86 1.19842105,0.905 C1.34842105,0.78 1.59157895,0.846666667 1.79526316,0.868333333 C2.17505344,0.901069396 2.54204158,0.715026796 2.75526316,0.381666667 C2.80312123,0.300737117 2.83880791,0.212467338 2.86105263,0.12 C2.64147601,0.406861222 2.30126165,0.559875509 1.95315789,0.528333333 Z" id="Path"></path>
                </g>
                <polygon id="Path" fill="#DCE6F2" points="43.7595495 28 46 30.4884668 45.7076396 33 43 29.0854817"></polygon>
                <polygon id="Path" fill="#000000" opacity="0.1" points="46 30.4884668 45.7251347 32.8507463 45.7074963 33 43.2631063 29.4667571 43 29.0854817 43.0764331 28.9755767 43.7584517 28 43.9098481 28.1682497"></polygon>
                <path d="M47.6396178,24.8804896 C46.9339021,25.0935925 46.2596427,25.825054 45.672914,26.7134629 C45.2763452,27.3264371 44.9216811,27.9683247 44.6116051,28.6342693 C44.4187642,29.0403168 44.2491736,29.4305256 44.108304,29.7703384 L44.009832,30.012239 C43.7718581,30.6040317 43.6391945,31 43.6391945,31 C43.6391945,31 38.2369135,26.7235421 39.0917048,26.4355652 C39.3789146,26.3390929 39.7563905,25.6911447 40.1297633,24.87473 L40.176264,24.7710583 C40.4128702,24.2469402 40.6453734,23.662347 40.851891,23.112311 C41.2744998,21.9820014 41.5876954,21 41.5876954,21 C41.5876954,21 49.7936919,24.2325414 47.6396178,24.8804896 Z" id="Path" fill="#EFB7B9"></path>
                <path d="M51,21 C51,21 52.2321407,23.2820248 53.8871542,22.9708396 C55.5421677,22.6596544 54.8612479,21.7454614 54.8612479,21.7454614 L51,21 Z" id="Path" fill="#444053"></path>
                <path d="M48.1670403,100.79793 C47.048745,101.252587 44.5201241,100.79793 44.5201241,100.79793 L43.4544219,100.738788 C42.070393,100.659931 39.7535286,100.526861 38.9341835,100.467718 C37.7383825,100.380237 38.0317966,99.9440611 38.0317966,99.9440611 L38.0317966,97.3085264 L43.8336458,96 C43.8336458,96 46.1269817,96.69862 46.7553308,97.3085264 C47.3518473,97.8900936 47.7006226,97.442829 48.7649408,97.6103992 C48.8175339,97.6190241 48.8728951,97.6288812 48.9310243,97.6412026 C49.9413654,97.846969 50.4894408,97.9282898 50.8133036,98.6737309 C50.8783835,98.8303413 50.9306517,98.9909378 50.9696989,99.1542632 C51.2686491,100.354362 49.2839516,100.345737 48.1670403,100.79793 Z" id="Path" fill="#A36468"></path>
                <path d="M51,99.0196928 C50.789073,99.1305945 50.5673524,99.2262501 50.33722,99.3056321 C49.5649128,99.6022056 48.8305188,99.9637653 48.0497865,100.243797 C47.2690541,100.523828 46.4279413,100.723513 45.582616,100.670343 C45.1402946,100.643167 44.6881438,100.552186 44.2654812,100.658527 C44.0040907,100.743452 43.7579004,100.858363 43.5338956,101 C42.1297007,100.92438 39.7790784,100.79677 38.947795,100.740055 C37.7345706,100.656164 38.0322599,100.237889 38.0322599,100.237889 L38.0322599,99.942497 C38.07579,99.942497 38.1249368,99.9318629 38.1811046,99.9283182 C38.4716982,99.9244102 38.761078,99.9607356 39.0376635,100.035841 C39.6470841,100.175266 40.2536963,100.312328 40.8631169,100.44939 C40.9644172,100.127736 41.2182478,99.8551989 41.5652143,99.6955494 C41.9130527,99.5401759 42.3034513,99.464775 42.6969954,99.4769594 C43.6420186,99.4875935 44.5364908,99.8645136 45.4801098,99.9023237 C45.7439226,99.9227344 46.0095197,99.8852829 46.2510128,99.7936195 C46.3801987,99.7392674 46.4939385,99.6601024 46.620316,99.5998425 C46.8225693,99.5175155 47.0362593,99.4567847 47.2564163,99.4190626 C47.8752135,99.2894499 48.4827708,99.1244344 49.0748488,98.9251674 C49.2433522,98.8696337 49.4399394,98.7692005 49.4174723,98.6179598 C49.3879842,98.4170933 49.0130642,98.393462 48.9147705,98.2091375 C48.8796116,98.1417559 48.8837646,98.0644379 48.9260041,98 C48.9793635,98.008271 49.0355313,98.0177235 49.0945075,98.0295392 C50.1153572,98.226861 50.6714184,98.3048444 51,99.0196928 Z" id="Path" fill="#000000" opacity="0.1"></path>
                <path d="M47.7295224,107.717284 C46.4401402,108.353396 43.5220645,107.717284 43.5220645,107.717284 L42.2937582,107.639602 C40.7030676,107.529675 38.0238669,107.346463 37.0778675,107.259987 C35.6975499,107.136868 36.036861,106.527139 36.036861,106.527139 L36.036861,102.83212 L42.7321482,101 C42.7321482,101 45.378775,101.977619 46.1035435,102.83212 C46.7916665,103.645581 47.1893391,103.019729 48.4230744,103.25424 C48.4841504,103.265966 48.5479409,103.280623 48.6144459,103.296745 C49.7803189,103.589884 50.4127948,103.699812 50.7860371,104.743387 C50.8616035,104.962483 50.9219418,105.187358 50.9665506,105.416141 C51.3031472,107.095829 49.0189047,107.082637 47.7295224,107.717284 Z" id="Path" fill="#A36468"></path>
                <path d="M51,105.353867 C50.7566597,105.501655 50.5009918,105.629321 50.2356887,105.735521 C49.3446807,106.130566 48.4963641,106.612655 47.5957161,106.986274 C46.6950682,107.359893 45.7241863,107.625042 44.7477958,107.555407 C44.238255,107.51925 43.7163199,107.39471 43.2329446,107.539337 C42.9300679,107.654038 42.6450339,107.809072 42.386005,108 C40.7719999,107.899565 38.0535305,107.732173 37.0936657,107.653164 C35.6931169,107.540676 36.0374013,106.983596 36.0374013,106.983596 L36.0374013,106.58989 C36.0944221,106.580835 36.1518755,106.574578 36.2095434,106.571142 C36.545034,106.565183 36.879202,106.613608 37.1983282,106.714429 L39.3039714,107.266153 C39.4225161,106.836051 39.717857,106.47234 40.1206139,106.260462 C40.5220009,106.052393 40.9729904,105.951653 41.4275174,105.96853 C42.5182102,105.983261 43.5496862,106.485437 44.639002,106.536324 C44.9423695,106.563233 45.2477589,106.513893 45.5258785,106.393036 C45.6759865,106.319384 45.801306,106.213592 45.9527911,106.134583 C46.1856997,106.023675 46.4324345,105.942649 46.6868054,105.893539 C47.3970002,105.719271 48.0944596,105.499165 48.7745458,105.234684 C48.9687222,105.159692 49.1959499,105.025778 49.1697843,104.824908 C49.1353558,104.557081 48.7029347,104.524941 48.5886323,104.27854 C48.5496059,104.188457 48.5546701,104.086028 48.6024036,104 C48.6643748,104.010713 48.7291003,104.024104 48.79658,104.038835 C49.9795411,104.295949 50.6212872,104.400402 51,105.353867 Z" id="Path" fill="#000000" opacity="0.1"></path>
                <path d="M43.9570957,83 L43.5532066,91.7663867 C43.5532066,91.7663867 42.9481293,93.5564987 43.2763837,94.0685573 C43.6046381,94.5806158 44.1582839,95.0912791 43.9570957,95.3940495 C43.7559075,95.6968198 41.3355983,98.9700878 40.5535359,97.7143584 C39.7714735,96.458629 39,91.0171348 39,91.0171348 L39.7215547,84.2961918 L43.9570957,83 Z" id="Path" fill="#444053"></path>
                <path d="M45.9243562,61 L46.876271,62.4356006 L46.876271,74.9218524 C46.876271,74.9218524 47.1546612,78.2503618 46.876271,78.9377713 C46.5978808,79.6251809 45.1866863,81 45.1866863,81 L44,74.1259045 L44.2565808,66.853835 L45.9243562,61 Z" id="Path" fill="#444053"></path>
                <path d="M43.9570957,83 L43.5532066,91.7663867 C43.5532066,91.7663867 42.9481293,93.5564987 43.2763837,94.0685573 C43.6046381,94.5806158 44.1582839,95.0912791 43.9570957,95.3940495 C43.7559075,95.6968198 41.3355983,98.9700878 40.5535359,97.7143584 C39.7714735,96.458629 39,91.0171348 39,91.0171348 L39.7215547,84.2961918 L43.9570957,83 Z" id="Path" fill="#000000" opacity="0.1"></path>
                <path d="M45.9243562,61 L46.876271,62.4356006 L46.876271,74.9218524 C46.876271,74.9218524 47.1546612,78.2503618 46.876271,78.9377713 C46.5978808,79.6251809 45.1866863,81 45.1866863,81 L44,74.1259045 L44.2565808,66.853835 L45.9243562,61 Z" id="Path" fill="#000000" opacity="0.1"></path>
                <path d="M47,56.3549383 L47,62.8788954 L45.7933329,67.9574332 C45.7933329,67.9574332 45.4065621,80.2127432 45.7440812,81.7028949 C46.0816003,83.1930467 44.5852173,84.5923355 44.5852173,84.5923355 C44.5852173,84.5923355 43.7160693,84.6859942 43.7160693,85.3374114 C43.7160693,85.9888286 42.2674894,87.8536151 42.2674894,87.8536151 L42.3152925,91.4881316 C42.3152925,91.4881316 42.9439762,98.2916668 41.9777734,99.5958991 C41.0115706,100.900131 42.3152925,101.087449 42.3152925,101.087449 C41.1086255,104.907885 35.3143058,104.02302 34.7913684,103.603652 C34.2684311,103.184285 34.7913684,94.9367285 34.7913684,94.9367285 C34.7913684,94.9367285 36.0863989,82.35571 37.1004048,81.7965536 C38.1144108,81.2373972 37.1496565,80.5384517 37.4871757,79.6997172 C37.8246948,78.8609826 37.1496565,76.5782267 37.1496565,76.5782267 C37.1496565,76.5782267 36.8599406,73.8747056 36.1356506,72.5704733 C35.4113606,71.2662411 35.5069669,67.677855 35.5069669,67.677855 C35.5069669,67.677855 33.478955,65.0679926 32.8763458,64.0433385 C32.2737365,63.0186845 31.8855171,60.3626916 32.0303751,58.358116 C32.1288785,57.0035597 32.8662057,55.0311356 33.334097,53.8960481 C33.5586269,53.3522685 33.7208679,53 33.7208679,53 L33.858483,53.0349473 L41.7706265,55.0339313 L47,56.3549383 Z" id="Path" fill="#444053"></path>
                <path d="M47.6471998,24.3987414 C46.9562339,24.5849049 46.2960668,25.2238984 45.7216009,26 L45.5716237,26 C43.8576776,26.0011373 42.2740856,25.1407625 41.4204715,23.7446535 C41.2452174,23.4604496 41.1041916,23.1588014 41,22.8452826 C41.4137761,21.8578614 41.7204258,21 41.7204258,21 C41.7204258,21 49.756253,23.8327038 47.6471998,24.3987414 Z" id="Path" fill="#000000" opacity="0.1"></path>
                <path d="M51,20.9977188 C51.00339,23.0923154 49.6977362,24.9664566 47.7301618,25.6912492 C45.7625874,26.4160417 43.5512427,25.8374523 42.1921513,24.242251 C40.8330599,22.6470497 40.6150568,20.3742498 41.6461924,18.5503344 C41.7977639,18.2799047 41.9747867,18.0245134 42.1748612,17.7876222 C42.5046742,17.3951708 42.8923202,17.0550941 43.324506,16.7790539 C44.8094946,15.8365213 46.6811851,15.7429315 48.2529986,16.5326153 C49.8248122,17.3222992 50.8653809,18.8790168 50.9930004,20.6317287 C50.9957976,20.7546567 51,20.8761877 51,20.9977188 Z" id="Path" fill="#EFB7B9"></path>
                <path d="M46,33.8414478 L45.9842639,34 L43.8035059,30.2524023 C43.5753327,30.844811 43.4481328,31.2411915 43.4481328,31.2411915 C43.4481328,31.2411915 38.2683406,26.9545163 39.087928,26.6662396 C39.3633093,26.5696669 39.7252391,25.9210442 40.0832349,25.1037796 L40.1278204,25 C40.508109,26.2453555 42.7177165,28.7346252 43.6369657,29.7320628 C43.7431842,29.8473735 43.831044,29.9425048 43.8992337,30.0116912 L44.039547,30.1558296 L44.112982,30.2365471 C44.4473737,30.615631 45.8583753,32.2876361 46,33.8414478 Z" id="Path" fill="#000000" opacity="0.1"></path>
                <path d="M48,45.2262063 L47.7373142,53.522599 L47.6911276,55 C47.6911276,55 44.5793108,54.7167016 41.6753334,54.4050734 C39.3371408,54.1543544 37.1331778,53.8838044 36.7939955,53.7251573 C36.3609969,53.525432 35.4329365,53.3710344 34.7011688,53.2732964 C34.1353839,53.1982224 33.6908387,53.1585606 33.6908387,53.1585606 C33.6908387,53.1585606 33.5248559,53.2067213 33.2693867,53.2520491 C32.7122618,53.3512035 31.7336849,53.4319435 31.16357,52.9460868 C30.434689,52.3242469 32.3499863,50.0649424 32.8277281,49.522426 L32.9330911,49.4048572 L32.752675,47.7688091 L32.2835931,43.5264161 C32.2835931,43.5264161 31.9949274,41.0829676 31.5619287,39.7727127 C31.4461673,39.4001892 31.362639,39.0187443 31.3122329,38.6324367 C31.1513524,37.4357432 31.2337669,36.2196223 31.5547121,35.0543783 C31.6918355,34.5592469 31.7788565,34.0520478 31.8145113,33.5401486 C31.8866777,32.2298936 35.9640815,27.1659353 36.9744116,26.7055754 C37.4289037,26.4975731 37.7946214,26.1396581 38.007835,25.6942002 C38.0782247,25.554137 38.1310511,25.4062146 38.1651578,25.2536713 C38.5981565,23.4122319 39.693643,24.1431417 39.693643,24.1431417 C39.9577721,25.5837139 44.0467225,29.3969099 44.0467225,29.3969099 L44.1275489,29.4762335 C44.5331243,29.8841831 46.3401719,31.7992801 46.2117157,33.4339117 C46.1860472,34.0423084 46.2786248,34.6499392 46.4845048,35.2243574 C47.3162263,37.7945428 47.7943484,40.4622578 47.9061836,43.1567117 L48,45.2262063 Z" id="Path" fill="#DCE6F2"></path>
                <path d="M42.9674382,36 C42.9674382,36 41.91872,38.3682168 41.1321814,38.7513108 C40.3456427,39.1344047 43.3419804,39.5592906 42.9674382,36 Z" id="Path" fill="#000000" opacity="0.1"></path>
                <path d="M43,40 C43,40 41,40.3525391 41,40.8813477 C41,41.4101562 43,40 43,40 Z" id="Path" fill="#000000" opacity="0.1"></path>
                <path d="M45,43 C45,43 41.9538372,49.7899184 41.1022218,49.9956735 C40.2506064,50.2014286 45,43 45,43 Z" id="Path" fill="#000000" opacity="0.1"></path>
                <path d="M44,30.7554374 L41.2813384,32 L38,26.7805785 C38.0689477,26.6333741 38.1206919,26.47791 38.1540999,26.3175893 C38.5782281,24.3822647 39.6512724,25.1504397 39.6512724,25.1504397 C39.9099906,26.664459 43.9151744,30.6720696 43.9151744,30.6720696 L44,30.7554374 Z" id="Path" fill="#000000" opacity="0.1"></path>
                <path d="M44,29.7554374 L41.2813384,31 L38,25.7805785 C38.0689477,25.6333741 38.1206919,25.47791 38.1540999,25.3175893 C38.5782281,23.3822647 39.6512724,24.1504397 39.6512724,24.1504397 C39.9099906,25.664459 43.9151744,29.6720696 43.9151744,29.6720696 L44,29.7554374 Z" id="Path" fill="#DCE6F2"></path>
                <path d="M47.9545336,55.413258 C47.9545336,55.413258 44.8912365,55.1280432 42.0325381,54.814307 L47.1617137,56.1619468 L47.1617137,57.7306281 C46.9372235,57.9345567 46.7425705,58.0400862 46.6161172,57.9858953 C46.0250543,57.7363324 41.201356,56.9519918 41.201356,56.9519918 C41.201356,56.9519918 38.3994905,55.5259179 35.3759765,53.8146292 C35.3025869,53.773822 35.2314425,53.7290734 35.1628529,53.6805782 C34.8103108,53.4403329 34.5065351,53.1349508 34.2677336,52.7807256 C33.7093497,51.9692895 33.4365514,50.9268295 33.318623,49.9043345 C33.2523256,49.3183436 33.2276357,48.728362 33.2447402,48.138855 C33.2593856,47.4704118 33.320153,46.80379 33.4266057,46.1437776 C33.1341976,43.5874545 32.9918693,41.01608 33.0003584,38.4429786 C33.035879,34.4499716 36.7655426,33.0238977 36.7655426,33.0238977 C43.6210197,32.4178163 41.4954666,43.5411928 41.4954666,43.5411928 C41.4954666,43.5411928 41.0990566,46.6785554 40.991074,46.999422 C40.8830913,47.3202886 40.4952063,47.8550663 40.5477768,48.6037551 C40.6003473,49.3524439 41.9103473,50.2480183 41.9103473,50.2480183 C41.9103473,50.2480183 43.1890891,50.8498215 43.7162149,51.7411177 C44.0998374,52.3985378 46.5919632,53.289834 48,53.9258629 L47.9545336,55.413258 Z" id="Path" fill="#000000" opacity="0.1"></path>
                <path d="M49.9999063,18.4590185 C50.0023442,18.6811951 49.9571635,18.9012372 49.8675178,19.1037858 C49.7996488,19.2690678 49.7209197,19.4294994 49.6318662,19.583989 C49.4925309,19.8681702 49.2947596,20.1184425 49.0520043,20.3177828 C48.7461868,20.5403489 48.3596122,20.6023977 47.992896,20.692773 C47.6261797,20.7831484 47.2449007,20.9274791 47.0357268,21.2458161 C46.9223631,21.4504581 46.846546,21.6744341 46.8119901,21.9067701 C46.7769195,22.1389059 46.6859507,22.3585733 46.547213,22.5461418 C46.3986258,22.734503 46.1438156,22.7966348 45.9276346,22.697217 C45.8169145,22.6211644 45.732954,22.5110417 45.6880114,22.3829267 C45.5370884,22.0362631 45.4986957,21.6518307 45.437797,21.2781894 C45.3768983,20.9045481 45.2908457,20.5201157 45.0657852,20.2193142 C44.8407247,19.9185127 44.4422351,19.7202265 44.0887577,19.8375795 C43.8496979,19.9313498 43.6584725,20.1203412 43.5592035,20.3609472 C43.4613743,20.5993347 43.3941826,20.8496011 43.3592968,21.105532 C43.195135,22.0209757 43.0014064,22.9310239 42.7781111,23.8356765 C42.7712986,23.8727604 42.7563654,23.9078015 42.7344229,23.9381918 C42.6992269,23.9739348 42.6517241,23.9942627 42.6020343,23.994845 C42.305484,24.0353115 42.0208486,23.8235365 41.7216505,23.8464676 C41.6908202,23.8485598 41.6602429,23.8535265 41.6303024,23.8613053 C40.6393777,22.1066155 40.8303064,19.9080028 42.108225,18.357852 L42.132055,18.3511076 C42.331084,18.2791202 42.511951,18.1630222 42.6616092,18.0111884 C42.8527195,17.8163337 43.0297022,17.6076077 43.1911634,17.3866544 L43.2970742,17.2517658 C43.6013771,16.8782497 43.9479981,16.5427414 44.3297049,16.2522416 C44.4338988,16.1652681 44.5534192,16.0993435 44.6818584,16.0580021 C44.7917755,16.0361842 44.9044235,16.0325406 45.0154775,16.047211 C45.4726796,16.1031327 45.9336151,16.1207272 46.3936423,16.0998175 C46.7141872,16.0484781 47.0372626,16.0151552 47.3614026,16 C48.1994221,16.0242799 48.9143203,16.6272318 49.4438744,17.2881858 C49.7285098,17.626756 49.9826958,18.016584 49.9999063,18.4590185 Z" id="Path" fill="#000000" opacity="0.1"></path>
                <path d="M40.4673843,18.6342341 C40.2696986,18.9679455 39.9127266,19.1948107 39.7790399,19.5607223 C39.5827764,20.092026 39.9141488,20.7535942 39.6097982,21.2278156 C39.5088221,21.3873531 39.3424248,21.5059084 39.2855368,21.6888643 C39.1888273,21.9976937 39.4533563,22.3270141 39.3850908,22.6446254 C39.3168252,22.9622367 38.9100763,23.230084 39.0181634,23.540377 C39.0820377,23.6757016 39.1940801,23.7805269 39.3310472,23.8331063 C39.5465463,23.9603297 39.7945817,24.0169984 40.0421468,23.9955711 C40.4304071,23.929707 40.7191136,23.5374497 41.1130627,23.5081768 C41.4330575,23.4847584 41.7388303,23.7130873 42.0574029,23.6706415 C42.1107947,23.6687297 42.161546,23.6462706 42.1996229,23.6077047 C42.2237912,23.5750854 42.2398973,23.5369116 42.2465554,23.4964676 C42.4854849,22.5158245 42.6940741,21.528351 42.872323,20.5340472 C42.9086432,20.2562623 42.9803704,19.9846134 43.0856529,19.7261144 C43.1931188,19.4656192 43.3982591,19.2608341 43.6545326,19.1582196 C44.0342597,19.032346 44.4609195,19.2460383 44.7041155,19.5724315 C44.9473116,19.8988247 45.0397545,20.3159639 45.1051757,20.721394 C45.1705968,21.126824 45.2118406,21.5439633 45.3725491,21.9201204 C45.421381,22.05963 45.5120216,22.1795641 45.6313894,22.2626137 C45.8447192,22.3899509 46.1320035,22.2889593 46.2955564,22.0986853 C46.4453884,21.8950779 46.5431874,21.6560362 46.5799962,21.4034532 C46.6170996,21.1518077 46.6985535,20.9092531 46.8203478,20.6877301 C47.0450553,20.3423095 47.4560709,20.1856994 47.8485978,20.087635 C48.2411248,19.9895707 48.6549847,19.9207793 48.9863571,19.6792777 C49.2467912,19.4632062 49.4592025,19.1922 49.6092803,18.8845177 C49.8197658,18.5068969 50.0160293,18.0970759 49.9989629,17.6623729 C49.9804743,17.1881514 49.7074121,16.7651576 49.4158613,16.3963187 C48.8469816,15.679132 48.0775719,15.024882 47.1773198,15 C46.8290063,15.0149892 46.4818583,15.0511556 46.1376923,15.1083098 C45.6434658,15.1311825 45.1482467,15.1115994 44.657183,15.049764 C44.5377747,15.0350646 44.4168738,15.0395083 44.2987888,15.0629368 C44.1606509,15.1063535 44.0324592,15.1780424 43.921906,15.2737019 C43.5114527,15.5883924 43.1386158,15.9519517 42.8111685,16.3568003 C42.6000374,16.6449045 42.3710617,16.9186874 42.1256685,17.1764423 C41.9648309,17.3414556 41.7705833,17.4678978 41.5567888,17.5467448 C41.4145689,17.5877269 41.272349,17.558454 41.1372401,17.603827 C40.7176914,17.7399461 40.6622256,18.30345 40.4673843,18.6342341 Z" id="Path" fill="#965D7B"></path>
                <path d="M53.8877124,22.9705882 C52.8066783,23.1740126 51.9107712,22.2786682 51.4148468,21.6254957 C51.2625334,21.4271272 51.1239148,21.2181215 51,21 L54.7106496,21.7168291 L54.8606431,21.7458898 C54.8606431,21.7458898 55.5430459,22.660608 53.8877124,22.9705882 Z" id="Path" fill="#000000" opacity="0.1"></path>
                <g id="Group" opacity="0.1" transform="translate(39.000000, 17.000000)" fill="#000000">
                    <path d="M0.485949367,5.04304348 C0.501531863,4.84402751 0.473860065,4.64380393 0.405189873,4.45869565 C0.405189873,4.47391304 0.392658228,4.48913043 0.388481013,4.50434783 C0.328607595,4.70826087 0.409367089,4.91978261 0.460886076,5.13130435 C0.4719507,5.10288631 0.480348144,5.07331455 0.485949367,5.04304348 L0.485949367,5.04304348 Z" id="Path"></path>
                    <path d="M0.817341772,2.55195652 C0.803016647,2.7623825 0.806745994,2.97381199 0.828481013,3.18347826 C0.842757327,2.97305082 0.839028067,2.76162631 0.817341772,2.55195652 L0.817341772,2.55195652 Z" id="Path"></path>
                    <path d="M10.4875949,1.12913043 C10.3410482,1.44972809 10.133041,1.73207161 9.87772152,1.95695652 C9.55607595,2.20804348 9.15088608,2.27804348 8.76379747,2.38 C8.37670886,2.48195652 7.97708861,2.64478261 7.75708861,3.00391304 C7.63805594,3.23487647 7.5583276,3.48751333 7.52177215,3.74956522 C7.48550487,4.01210278 7.3897777,4.2605725 7.24329114,4.4723913 C7.08316456,4.67021739 6.80189873,4.77673913 6.59303797,4.64282609 C6.47617085,4.55648026 6.38742918,4.43178594 6.33962025,4.28673913 C6.18227848,3.89565217 6.14050633,3.46347826 6.0778481,3.04043478 C6.01518987,2.6173913 5.92189873,2.18521739 5.68518987,1.84586957 C5.44848101,1.50652174 5.02936709,1.28282609 4.65759494,1.41521739 C4.40642735,1.5214566 4.20544567,1.73451704 4.10063291,2.00565217 C3.99755603,2.27441113 3.92733139,2.55684185 3.89177215,2.84565217 C3.71818565,3.87942029 3.51396624,4.90608696 3.27911392,5.92565217 C3.27259527,5.96770143 3.2568266,6.00739035 3.23316456,6.04130435 C3.19588541,6.08140089 3.14619725,6.10475138 3.09392405,6.10673913 C2.78202532,6.15086957 2.48265823,5.91347826 2.16936709,5.93782609 C1.78367089,5.96826087 1.50101266,6.37608696 1.12088608,6.44304348 C0.878417531,6.46680915 0.635173353,6.40779311 0.424683544,6.27413043 C0.327901913,6.22862345 0.241053801,6.16119748 0.169873418,6.07630435 C0.103862964,6.17960729 0.0848730712,6.31029999 0.11835443,6.43086957 C0.179686238,6.57254531 0.289807632,6.68195445 0.424683544,6.73521739 C0.635173353,6.86888007 0.878417531,6.9278961 1.12088608,6.90413043 C1.50101266,6.83717391 1.78367089,6.42934783 2.16936709,6.39891304 C2.48265823,6.37456522 2.78202532,6.61195652 3.09392405,6.56782609 C3.14619725,6.56583834 3.19588541,6.54248784 3.23316456,6.5023913 C3.2568266,6.46847731 3.27259527,6.42878838 3.27911392,6.38673913 C3.51303797,5.37224638 3.71725738,4.34557971 3.89177215,3.30673913 C3.92733139,3.01792881 3.99755603,2.73549808 4.10063291,2.46673913 C4.20544567,2.195604 4.40642735,1.98254355 4.65759494,1.87630435 C5.02936709,1.74391304 5.44708861,1.9676087 5.68518987,2.30695652 C5.92329114,2.64630435 6.01379747,3.08 6.0778481,3.50152174 C6.14189873,3.92304348 6.18227848,4.35673913 6.33962025,4.74782609 C6.38742918,4.89287289 6.47617085,5.01756721 6.59303797,5.10391304 C6.80189873,5.23630435 7.08316456,5.13130435 7.24329114,4.93347826 C7.3897777,4.72165945 7.48550487,4.47318973 7.52177215,4.21065217 C7.5583276,3.94860028 7.63805594,3.69596343 7.75708861,3.465 C7.97708861,3.10586957 8.37949367,2.94456522 8.76379747,2.84108696 C9.14810127,2.7376087 9.55329114,2.66913043 9.87772152,2.41804348 C10.133041,2.19315857 10.3410482,1.91081504 10.4875949,1.59021739 C10.6936709,1.19913043 10.8858228,0.773043478 10.8691139,0.321086957 C10.8663739,0.262977032 10.8607964,0.205068486 10.8524051,0.147608696 C10.7852252,0.495904833 10.6616833,0.82829435 10.4875949,1.12913043 L10.4875949,1.12913043 Z" id="Path"></path>
                </g>
                <path d="M49.4005388,18.7614552 C49.745995,19.4487725 49.9507438,20.2133581 50,21 C48.7997306,20.2462812 47.6708577,19.418698 47.1010328,19.1307774 C46.1082173,18.6288007 42.3955995,18.7041726 41,18.7509031 C41.1459913,18.459076 41.3164967,18.1834772 41.5092052,17.9278422 C41.8281034,17.5039866 42.2028582,17.1369843 42.6205658,16.8394723 C43.7385511,16.0455012 45.0992469,15.8013351 46.3830258,16.1643285 C47.6668047,16.527322 48.760526,17.465484 49.4072744,18.7584403 L49.4005388,18.7614552 Z" id="Path" fill="#000000" opacity="0.1"></path>
                <path d="M54.3298436,21.9619551 C53.658853,22.1043244 52.563785,21.8292053 51.4282623,21.4348037 C51.2710233,21.2969109 51.127922,21.1516238 51,21 L54.8306454,21.4982927 C55.0845338,21.6175752 55.1487034,21.7878412 54.3298436,21.9619551 Z" id="Path" fill="#000000" opacity="0.1"></path>
                <path d="M46.062642,14.0062641 C46.062642,14.0062641 42.4921328,13.799157 41.4883096,15.7666747 L41.3264466,17.5105166 L41.0544078,17.4801409 L41,18.6661744 C41,18.6661744 46.4570983,18.4245494 47.6989554,18.9934036 C48.9408125,19.5622579 52.7996828,22.4286205 54.3462233,21.9453705 C55.8927639,21.4621206 54.2102039,21.0133885 54.2102039,21.0133885 C54.2102039,21.0133885 52.0815004,20.097975 52.0815004,19.3800036 C52.0815004,18.6620322 51.5537451,14.8692105 46.062642,14.0062641 Z" id="Path" fill="#444053"></path>
                <path d="M39,80 C39,80 41.09375,82.1568047 42,81.9908967 C42,81.9908967 39.4375,81.7586254 39,80 Z" id="Path" fill="#000000" opacity="0.1"></path>
                <path d="M38,81 C38,81 38.2313748,82.1004913 38.8483744,81.9925484 C39.465374,81.8846055 38,81 38,81 Z" id="Path" fill="#000000" opacity="0.1"></path>
                <path d="M42,100 C42,100 38.4727859,102.9196 39.0675768,102.998508 C39.6623678,103.077416 42,100 42,100 Z" id="Path" fill="#000000" opacity="0.1"></path>
                <polygon id="Path" fill="#4EA5D9" points="46 48.7187929 57 47 57 57 46.5485714 56.4746228"></polygon>
                <polygon id="Path" fill="#000000" opacity="0.05" points="46 48.7187929 57 47 57 57 46.5485714 56.4746228"></polygon>
                <polygon id="Path" fill="#4EA5D9" points="57 47 70 47.9478738 69.2805935 56.6502058 57 57"></polygon>
                <polygon id="Path" fill="#000000" opacity="0.1" points="57 47 70 47.9478738 69.2805935 56.6502058 57 57"></polygon>
                <polygon id="Path" fill="#4EA5D9" points="60.9639765 44 57 47.0521262 69.8930466 48 72 44.8765432"></polygon>
                <polygon id="Path" fill="#4EA5D9" points="42 45.2889432 51.9141876 44 57 47.0864386 45.9874142 49"></polygon>
                <polygon id="Path" fill="#4EA5D9" points="59 49.9050627 59 64 54.0052194 63.4767606 51.8325522 63.250495 51.1706434 63.1797869 48.9993609 62.9521071 46 62.6381635 46 49 56.6611632 49.7410201"></polygon>
                <polygon id="Path" fill="#4EA5D9" points="70 49 70 62.0539887 65.7857143 62.7993554 63.7361516 63.1619662 59 64 59 50.6142896"></polygon>
                <polygon id="Path" fill="#000000" opacity="0.05" points="70 49 70 62.0539887 65.7857143 62.7993554 63.7361516 63.1619662 59 64 59 50.6142896"></polygon>
                <polygon id="Path" fill="#4EA5D9" points="43 51.8274933 46.8925756 49 60 49.8625337 58.0704665 53"></polygon>
                <polygon id="Path" fill="#FFFFFF" opacity="0.1" points="43 51.8274933 46.8925756 49 60 49.8625337 58.0704665 53"></polygon>
                <polygon id="Path" fill="#4EA5D9" points="69.7401082 48 59 49.7666079 62.4955878 53 74 51.0070547"></polygon>
                <polygon id="Path" fill="#FFFFFF" opacity="0.1" points="69.7401082 48 59 49.7666079 62.4955878 53 74 51.0070547"></polygon>
                <polygon id="Path" fill="#FFFFFF" opacity="0.1" points="66 61.6637609 64 62 64 59.4134496 65.8733997 59"></polygon>
                <polygon id="Path" fill="#FFFFFF" opacity="0.1" points="54 61 54 63 52 62.7671033 52 61"></polygon>
                <polygon id="Path" fill="#FFFFFF" opacity="0.1" points="51 62 51 63 49 62.7797538 49 62"></polygon>
                <path d="M57.8583288,59.9012614 C56.326679,61.9298201 51.2686725,60.5282705 51.2686725,60.5282705 L47.510075,56.4682026 L47,55.91791 L47.9973534,54 C47.9973534,54 48.2823115,54.0973708 48.7581915,54.2685074 C51.2772212,55.1802523 59.1477643,58.1943216 57.8583288,59.9012614 Z" id="Path" fill="#000000" opacity="0.1"></path>
                <path d="M57.8583288,59.9012614 C56.326679,61.9298201 51.2686725,60.5282705 51.2686725,60.5282705 L47.510075,56.4682026 L47,55.91791 L47.9973534,54 C47.9973534,54 48.2823115,54.0973708 48.7581915,54.2685074 C51.2772212,55.1802523 59.1477643,58.1943216 57.8583288,59.9012614 Z" id="Path" fill="#EFB7B9"></path>
                <path d="M49,54.2175732 C48.7633712,54.7196653 48.1620746,55.4632397 47.5802269,56 L47,55.5540944 L48.1345219,54 C48.1345219,54 48.4602917,54.0789002 49,54.2175732 Z" id="Path" fill="#000000" opacity="0.1"></path>
                <path d="M37.5330948,32.0244434 C37.5330948,32.0244434 34.0336642,33.4508288 34.0003363,37.4447077 C33.9923712,40.018371 34.1259136,42.5903072 34.4002712,45.1471886 C34.4002712,45.1471886 33.4004339,51.1023473 36.2333063,52.8140097 C39.0661788,54.5256722 41.6990837,55.9520575 41.6990837,55.9520575 C41.6990837,55.9520575 46.2250141,56.7365694 46.7809236,56.9861869 C47.3368332,57.2358043 49.2685189,54.0264373 48.9685677,53.4915428 C48.6686165,52.9566483 44.5479536,51.6372418 44.0586998,50.745751 C43.5694461,49.8542602 42.3643088,49.2537519 42.3643088,49.2537519 C42.3643088,49.2537519 41.1351755,48.3565556 41.0858502,47.6077033 C41.0365249,46.858851 41.3991325,46.3239565 41.5017825,46.0030198 C41.6044325,45.6820831 41.976372,42.5440353 41.976372,42.5440353 C41.976372,42.5440353 43.9653817,31.4110977 37.5330948,32.0244434 Z" id="Path" fill="#DCE6F2"></path>
                <path d="M39,46 C39,46 33.6051751,46.4848485 34.023084,48 C34.023084,48 36.0731175,46.4715152 39,46 Z" id="Path" fill="#000000" opacity="0.1"></path>
                <path d="M39,46 C39,46 35.4238435,47.8679093 36.0805075,47.9945472 C36.7371714,48.1211851 39,46 39,46 Z" id="Path" fill="#000000" opacity="0.1"></path>
                <path d="M39.9790501,47 C39.9790501,47 38.3684294,48.0529062 39.2787802,47.9979189 C40.1891311,47.9429315 39.9790501,47 39.9790501,47 Z" id="Path" fill="#000000" opacity="0.1"></path>
                <path d="M91.8902134,15.0078704 C91.8902134,15.0078704 86.4119268,14.6416956 87.0520213,18.9046737 C87.0520213,18.9046737 86.9237141,19.6578105 87.5393005,20 C87.5393005,20 87.5493921,19.6801967 88.1015457,19.7905288 C88.2981781,19.8272338 88.498039,19.8379688 88.696949,19.8225092 C88.9665106,19.8025685 89.2227495,19.6851781 89.4264261,19.4883147 L89.4264261,19.4883147 C89.4264261,19.4883147 90.9675546,18.7831484 91.5672828,15.9880675 C91.5672828,15.9880675 92.0113124,15.3772432 91.9997792,15.2205396 L91.074237,15.6602692 C91.074237,15.6602692 91.3899594,16.4006138 91.1405531,17.0162352 C91.1405531,17.0162352 91.1117201,15.6874524 90.9329549,15.7178337 C90.8969136,15.7178337 90.452884,15.9752754 90.452884,15.9752754 C90.452884,15.9752754 90.9963877,17.2640827 90.5855162,18.2027054 C90.5855162,18.2027054 90.7412149,16.613283 90.2827688,16.0680184 L89.631141,16.4901587 C89.631141,16.4901587 90.2669106,17.8221395 89.8358559,18.9094707 C89.8358559,18.9094707 89.9468633,17.2416965 89.4941838,16.5924958 L88.9031055,17.1025821 C88.9031055,17.1025821 89.5013921,18.4169736 89.1366536,19.318819 C89.1366536,19.318819 89.089079,17.3776129 88.7747983,17.2305034 C88.7747983,17.2305034 88.258686,17.7357926 88.1808367,17.9436647 C88.1808367,17.9436647 88.5888249,18.9030747 88.3350937,19.4003688 C88.3350937,19.4003688 88.179395,18.1067644 88.0467628,18.1003684 C88.0467628,18.1003684 87.5320922,18.9574412 87.478751,19.5394832 C87.503677,18.9968588 87.6562665,18.4709307 87.9213389,18.0140215 C87.6247148,18.0762675 87.3510496,18.2335952 87.1341956,18.4665432 C87.1341956,18.4665432 87.2134866,17.8605159 88.0482045,17.8077483 C88.0482045,17.8077483 88.4807008,17.1569486 88.5873832,17.1169732 C88.5873832,17.1169732 87.7569903,17.0402204 87.2538529,17.288068 C87.2538529,17.288068 87.6964408,16.7172191 88.7401986,16.9682647 L89.3168604,16.4405892 C89.3168604,16.4405892 88.2240863,16.2806876 87.7598736,16.4581784 C87.7598736,16.4581784 88.2932857,15.9528892 89.4740007,16.320663 L90.1083286,15.9001216 C90.1083286,15.9001216 89.1770199,15.6762593 88.6219829,15.7578092 C88.6219829,15.7578092 89.2072946,15.4076245 90.294302,15.7865915 L90.7484232,15.5611301 C90.7484232,15.5611301 90.065079,15.4124216 89.8661307,15.3884363 C89.6671824,15.3644511 89.6556491,15.3036885 89.6556491,15.3036885 C90.0879563,15.2238832 90.5317608,15.2792542 90.9372799,15.4635901 C90.9372799,15.4635901 91.9103966,15.0750291 91.8902134,15.0078704 Z" id="Path" fill="#4EA5D9"></path>
                <path d="M107.902668,34.0078704 C107.902668,34.0078704 102.410429,33.6416956 103.052154,37.9046737 C103.052154,37.9046737 102.92352,38.6578105 103.540674,39 C103.540674,39 103.550791,38.6801967 104.105796,38.7905288 C104.30293,38.8272338 104.503299,38.8379688 104.702716,38.8225092 C104.96979,38.8010866 105.223372,38.6843788 105.425379,38.4899137 L105.425379,38.4899137 C105.425379,38.4899137 106.971878,37.7831484 107.573133,34.9880675 C107.573133,34.9880675 108.016848,34.3788422 107.999504,34.2221386 L107.071605,34.6602692 C107.071605,34.6602692 107.388132,35.4006138 107.139536,36.0162352 C107.139536,36.0162352 107.109184,34.6874524 106.931409,34.7178337 C106.895275,34.7178337 106.44867,34.9752754 106.44867,34.9752754 C106.44867,34.9752754 106.995003,36.2656817 106.583085,37.2027054 C106.583085,37.2027054 106.73918,35.613283 106.278121,35.0680184 L105.632061,35.4853617 C105.632061,35.4853617 106.269449,36.8173424 105.837297,37.9046737 C105.837297,37.9046737 105.948587,36.2368994 105.494755,35.5876987 L104.903616,36.099384 C104.903616,36.099384 105.501981,37.4121766 105.137759,38.3140219 C105.137759,38.3140219 105.090063,36.3728158 104.774982,36.2257063 C104.774982,36.2257063 104.257556,36.7309956 104.178063,36.9388677 C104.178063,36.9388677 104.588535,37.8982776 104.334158,38.3955718 C104.334158,38.3955718 104.178063,37.1019674 104.045093,37.0955713 C104.045093,37.0955713 103.529111,37.9526442 103.475634,38.5346862 C103.501457,37.9919954 103.654904,37.4661672 103.920795,37.0092244 C103.62304,37.0716223 103.348251,37.2289066 103.130201,37.4617461 C103.130201,37.4617461 103.21114,36.8557188 104.047983,36.8029513 C104.047983,36.8029513 104.474355,36.1521516 104.588535,36.1121762 C104.588535,36.1121762 103.756028,36.0354234 103.251609,36.2832709 C103.251609,36.2832709 103.695324,35.712422 104.740294,35.9714627 L105.318425,35.4437872 C105.318425,35.4437872 104.221422,35.2838856 103.757473,35.4613764 C103.757473,35.4613764 104.292243,34.9560872 105.475965,35.323861 L106.111909,34.9033197 C106.111909,34.9033197 105.176783,34.6810564 104.620332,34.7610072 C104.620332,34.7610072 105.20858,34.4108226 106.298356,34.7897895 L106.753634,34.5643282 C106.753634,34.5643282 106.068549,34.4156196 105.867649,34.3916344 C105.666748,34.3676491 105.656631,34.3068865 105.656631,34.3068865 C106.090514,34.2270335 106.535924,34.2824013 106.942971,34.4667882 C106.942971,34.4667882 107.920012,34.0750291 107.902668,34.0078704 Z" id="Path" fill="#4EA5D9" opacity="0.1"></path>
                <path d="M75.80199,30.9421446 C75.80199,30.9421446 77.0846496,26.0652012 73.1208649,26.0481076 C73.1208649,26.0481076 72.4626773,25.8272053 72.0478285,26.3321248 C72.0478285,26.3321248 72.3307466,26.3860355 72.1387141,26.8672868 C72.0722989,27.0374626 72.0280284,27.2139524 72.0067834,27.3932446 C71.9783884,27.6376589 72.0396321,27.8837119 72.1812251,28.0940833 L72.1812251,28.0940833 C72.1812251,28.0940833 72.552097,29.579914 74.9664289,30.5108593 C74.9664289,30.5108593 75.4413794,30.9947404 75.5850373,31 L75.3504938,30.1071867 C75.3504938,30.1071867 74.6263408,30.2873272 74.113277,29.9756972 C74.113277,29.9756972 75.31971,30.1347995 75.3211759,29.9756972 C75.3211759,29.9428249 75.1745862,29.5075948 75.1745862,29.5075948 C75.1745862,29.5075948 73.9153809,29.8152801 73.1384557,29.3143054 C73.1384557,29.3143054 74.5471824,29.6772162 75.120348,29.3419181 L74.8564866,28.6949901 C74.8564866,28.6949901 73.5371796,29.0802541 72.6341872,28.5398325 C72.6341872,28.5398325 74.1220724,28.8738157 74.7875895,28.5582411 L74.4284448,27.9560194 C74.4284448,27.9560194 73.1384557,28.3084111 72.3864507,27.8547725 C72.3864507,27.8547725 74.1455267,28.0835642 74.3360933,27.8232151 C74.3360933,27.8232151 73.9696191,27.288053 73.7951774,27.1881211 C73.7951774,27.1881211 72.8628671,27.4221723 72.452416,27.1236912 C72.452416,27.1236912 73.6471218,27.164453 73.6749739,27.051372 C73.6749739,27.051372 72.9904001,26.4688738 72.4685409,26.3373844 C72.9548639,26.4367071 73.403985,26.6478786 73.7717231,26.9501252 C73.7663474,26.67455 73.6716032,26.4063459 73.4990663,26.1782822 C73.4990663,26.1782822 74.0326527,26.3360695 73.9388353,27.0987082 C73.9388353,27.0987082 74.4518991,27.5720702 74.468024,27.6798916 C74.468024,27.6798916 74.680579,26.9448656 74.5442506,26.4570398 C74.5442506,26.4570398 74.9840196,26.9356613 74.5691709,27.836364 L74.9444404,28.434641 C74.9444404,28.434641 75.2845285,27.4747681 75.1980406,27.0329635 C75.1980406,27.0329635 75.5630488,27.5825894 75.0250648,28.5924283 L75.2962556,29.2222627 C75.2962556,29.2222627 75.6583321,28.4149176 75.6817865,27.9073683 C75.6817865,27.9073683 75.8972733,28.4832921 75.3651528,29.4076629 L75.4912199,29.8468376 C75.4912199,29.8468376 75.7433541,29.2538202 75.7990582,29.0776244 C75.8547623,28.9014285 75.9119323,28.9001136 75.9119323,28.9001136 C75.9096983,29.3001411 75.783307,29.6917061 75.546924,30.0309228 C75.546924,30.0309228 75.7389565,30.9487191 75.80199,30.9421446 Z" id="Path" fill="#4EA5D9" opacity="0.1"></path>
                <path d="M63,33.2140848 C63,33.2140848 58.7643873,30.3287305 57.2502806,33.4542151 C57.2502806,33.4542151 56.7881381,33.890241 57.119826,34.4122083 C57.119826,34.4122083 57.2780369,34.2087295 57.6749522,34.5461757 C57.8155407,34.6652851 57.9711361,34.7687998 58.1384825,34.8545535 C58.3651494,34.9694917 58.6268351,35.0138697 58.8837394,34.9809378 L58.8837394,34.9809378 C58.8837394,34.9809378 60.4602977,35.2577195 62.2755603,33.7019284 C62.2755603,33.7019284 62.9236702,33.5123519 62.984734,33.4011336 L62.0285292,33.2482086 C62.0285292,33.2482086 61.9286065,33.8889772 61.435932,34.1758696 C61.435932,34.1758696 62.045183,33.2835962 61.886972,33.2191402 C61.8550523,33.2052379 61.3776438,33.155948 61.3776438,33.155948 C61.3776438,33.155948 61.2000034,34.2706579 60.4228267,34.6915177 C60.4228267,34.6915177 61.3068652,33.7170945 61.1972277,33.1357265 L60.4714003,33.1003389 C60.4714003,33.1003389 60.3478847,34.2870878 59.4818879,34.7976805 C59.4818879,34.7976805 60.3659263,33.7499544 60.3145771,33.1028666 L59.5956887,33.155948 C59.5956887,33.155948 59.4499681,34.309837 58.7269163,34.729433 C58.7269163,34.729433 59.6137303,33.4251467 59.4319265,33.1774334 C59.4319265,33.1774334 58.7754898,33.2621109 58.6131154,33.3606907 C58.6131154,33.3606907 58.4868242,34.1872442 58.0427233,34.3970422 C58.0427233,34.3970422 58.5353977,33.4681173 58.435475,33.4036613 C58.435475,33.4036613 57.6125005,33.720886 57.2891395,34.0823452 C57.5688607,33.7362579 57.9429537,33.4626718 58.3744111,33.2886516 C58.1059592,33.1870429 57.8107957,33.1589335 57.5250681,33.2077656 C57.5250681,33.2077656 57.8775732,32.8463064 58.5742566,33.2140848 C58.5742566,33.2140848 59.2265298,32.9903846 59.3375551,33.0181891 C59.3375551,33.0181891 58.706099,32.5669971 58.1828926,32.4886388 C58.1828926,32.4886388 58.8129608,32.3243391 59.5276858,32.9941761 L60.247962,32.9271924 C60.247962,32.9271924 59.4471925,32.2952707 58.9878256,32.1891079 C58.9878256,32.1891079 59.6581404,32.1120135 60.4311536,32.9234009 L61.1417151,32.9524693 C61.1417151,32.9524693 60.4991566,32.3559352 60.014809,32.1410819 C60.014809,32.1410819 60.6518163,32.1916356 61.345724,32.9663715 L61.8189691,33.0358829 C61.8189691,33.0358829 61.3401727,32.6087039 61.1902887,32.4974857 C61.0404046,32.3862675 61.0612218,32.3395053 61.0612218,32.3395053 C61.4473103,32.4952024 61.7783418,32.7454717 62.0174267,33.0624236 C62.0174267,33.0624236 62.9819584,33.2659024 63,33.2140848 Z" id="Path" fill="#4EA5D9" opacity="0.1"></path>
                <path d="M78,3.21493942 C78,3.21493942 73.7643873,0.327622377 72.2502806,3.45512779 C72.2502806,3.45512779 71.7881381,3.89125931 72.119826,4.41335297 C72.119826,4.41335297 72.2780369,4.20982493 72.6749522,4.5473528 C72.8162772,4.66587568 72.9723054,4.76896918 73.1398703,4.85454109 C73.3665023,4.96959542 73.6282206,5.01398965 73.8851272,4.98095602 L73.8851272,4.98095602 C73.8851272,4.98095602 75.4616856,5.25780472 77.2769482,3.70037276 C77.2769482,3.70037276 77.925058,3.51201451 77.984734,3.39950522 L77.0285292,3.24907145 C77.0285292,3.24907145 76.9299943,3.88999516 76.435932,4.17695705 C76.435932,4.17695705 77.0465708,3.28446763 76.8883598,3.21999602 C76.8564401,3.20609037 76.3790316,3.15678855 76.3790316,3.15678855 C76.3790316,3.15678855 76.1958399,4.27429655 75.4186633,4.69272997 C75.4186633,4.69272997 76.3013139,3.71807085 76.1930643,3.13656216 L75.4672368,3.10116598 C75.4672368,3.10116598 75.3423334,4.28820219 74.4777244,4.79765437 C74.4777244,4.79765437 75.3617628,3.74967458 75.3104137,3.10243013 L74.5929131,3.1555244 C74.5929131,3.1555244 74.4458047,4.31095688 73.7227528,4.73065445 C73.7227528,4.73065445 74.6109547,3.42605236 74.4291509,3.17827909 C74.4291509,3.17827909 73.7727142,3.26297709 73.6103398,3.36158074 C73.6103398,3.36158074 73.4840486,4.1883344 73.0399476,4.39818318 C73.0399476,4.39818318 73.5326221,3.46903343 73.4326994,3.40329767 C73.4326994,3.40329767 72.6097248,3.7218633 72.2863638,4.08341 C72.5656623,3.73686991 72.9398738,3.46313093 73.3716355,3.28952423 C73.1029078,3.18713513 72.8070553,3.15899919 72.5209046,3.20861867 C72.5209046,3.20861867 72.8747976,2.84707197 73.5714809,3.21493942 C73.5714809,3.21493942 74.2237542,2.98992084 74.3347794,3.01899628 C74.3347794,3.01899628 73.7033234,2.56769497 73.180117,2.48805356 C73.180117,2.48805356 73.8087974,2.3249783 74.5235223,2.99371329 L75.2437985,2.92671338 C75.2437985,2.92671338 74.4444168,2.29463872 73.9836621,2.18718602 C73.9836621,2.18718602 74.653977,2.11133706 75.428378,2.92292093 L76.1389395,2.95073221 C76.1389395,2.95073221 75.4963809,2.35405373 75.0106455,2.1404125 C75.0106455,2.1404125 75.6490406,2.19097847 76.3429484,2.965902 L76.8148056,3.03543022 C76.8148056,3.03543022 76.3346215,2.61320434 76.1847374,2.5044875 C76.0348533,2.39577066 76.0556706,2.34773299 76.0556706,2.34773299 C76.4418754,2.50329676 76.7729537,2.75366208 77.0118754,3.0708264 C77.0118754,3.0708264 77.9764071,3.26297709 78,3.21493942 Z" id="Path" fill="#4EA5D9" opacity="0.1"></path>
                <path d="M94,6.80928694 C94,6.80928694 92.4856008,1.35602034 89.6293446,3.49896836 C89.6293446,3.49896836 89.0459285,3.64998655 89,4.36128219 C89,4.36128219 89.2296425,4.25858982 89.33143,4.83245892 C89.3692465,5.03659318 89.426311,5.23473236 89.5014896,5.42294002 C89.6040823,5.67622999 89.771303,5.88232003 89.9781529,6.01040075 L89.9781529,6.01040075 C89.9781529,6.01040075 90.9860973,7.25630076 93.1906653,6.84402112 C93.1906653,6.84402112 93.7728401,7.05846694 93.8795929,6.98446803 L93.2589374,6.24296875 C93.2589374,6.24296875 92.8294439,6.8123073 92.3056107,6.78965457 C92.3056107,6.78965457 93.2527309,6.28827421 93.1745283,6.12668475 C93.1583913,6.09497093 92.8344091,5.75215966 92.8344091,5.75215966 C92.8344091,5.75215966 92.0821748,6.73830839 91.2753227,6.67337057 C91.2753227,6.67337057 92.4682224,6.25958075 92.7115194,5.61624329 L92.1976167,5.13449529 C92.1976167,5.13449529 91.4453823,6.22484657 90.5230884,6.19162257 C90.5230884,6.19162257 91.7643992,5.7068542 92.0784508,5.03633347 L91.519861,4.64519637 C91.519861,4.64519637 90.7750745,5.69175238 90.0029791,5.65852838 C90.0029791,5.65852838 91.3833168,4.92306983 91.3870407,4.56666692 C91.3870407,4.56666692 90.857001,4.24499819 90.6819762,4.24197782 C90.6819762,4.24197782 90.1283515,4.97743638 89.6889275,4.91098838 C89.6889275,4.91098838 90.5677756,4.29936473 90.5305362,4.17401964 C90.5305362,4.17401964 89.7485104,3.97920619 89.3078451,4.1362651 C89.7064125,3.96743575 90.134348,3.92838869 90.5491559,4.02300146 C90.4075076,3.75705588 90.2051923,3.5471307 89.9669811,3.41892873 C89.9669811,3.41892873 90.4287488,3.28150218 90.7378352,4.07283746 C90.7378352,4.07283746 91.3435948,4.25556946 91.408143,4.35071092 C91.408143,4.35071092 91.1946375,3.51860073 90.8532771,3.11689236 C90.8532771,3.11689236 91.408143,3.34492982 91.5595829,4.44887273 L92.1281033,4.82641819 C92.1281033,4.82641819 91.8934955,3.70737346 91.6104767,3.31623636 C91.6104767,3.31623636 92.1479643,3.65451709 92.2646475,4.93062074 L92.7735849,5.39726693 C92.7735849,5.39726693 92.6320755,4.41262837 92.3937438,3.90218691 C92.3937438,3.90218691 92.8356504,4.34618037 92.9150943,5.53771384 L93.2241807,5.89713711 C93.2241807,5.89713711 93.1099801,5.18131092 93.0628103,4.97894656 C93.0156405,4.77658219 93.0541212,4.76299056 93.0541212,4.76299056 C93.2514531,5.15475277 93.3558499,5.60529654 93.3557597,6.06476729 C93.3557597,6.06476729 93.9565541,6.84855167 94,6.80928694 Z" id="Path" fill="#4EA5D9" opacity="0.1"></path>
                <path d="M82.9030559,7.03220636 C82.9030559,7.03220636 77.5867172,6.46786227 78.0257711,10.0638842 C78.0257711,10.0638842 77.8672628,10.6870699 78.4465894,11 C78.4465894,11 78.4704358,10.7325383 79.0076806,10.8528961 C79.1975446,10.8918434 79.3914129,10.9102364 79.5856045,10.9077257 C79.8479128,10.9032094 80.1015269,10.8172932 80.3080093,10.6629983 L80.3080093,10.6629983 C80.3080093,10.6629983 81.8383854,10.14546 82.5523739,7.83860324 C82.5523739,7.83860324 83.0096632,7.35048573 82.9998441,7.21809221 L82.0810573,7.54172081 C82.0810573,7.54172081 82.3616029,8.17426762 82.0810573,8.67709553 C82.0810573,8.67709553 82.1105146,7.56579236 81.9407846,7.58317736 C81.9057164,7.58317736 81.4624544,7.77574976 81.4624544,7.77574976 C81.4624544,7.77574976 81.9337709,8.87902908 81.4933144,9.64798134 C81.4933144,9.64798134 81.7149454,8.32672076 81.2927243,7.85063902 L80.6404558,8.171593 C80.6404558,8.171593 81.201547,9.31499158 80.7316331,10.2029643 C80.7316331,10.2029643 80.9139878,8.81483828 80.5029885,8.2518315 L79.9068291,8.65302398 C79.9068291,8.65302398 80.4286439,9.77770024 80.0344774,10.5145571 C80.0344774,10.5145571 80.0751565,8.89106485 79.7763754,8.7533221 C79.7763754,8.7533221 79.2517552,9.15451458 79.1661888,9.32034081 C79.1661888,9.32034081 79.521079,10.1360989 79.253158,10.5439779 C79.253158,10.5439779 79.1591752,9.45674625 79.0357351,9.44604779 C79.0357351,9.44604779 78.4970876,10.1374362 78.4185349,10.6255537 C78.4671922,10.1730122 78.6393656,9.74052134 78.917906,9.37115852 C78.6268269,9.40950709 78.3538194,9.52802524 78.1323784,9.71217213 C78.1323784,9.71217213 78.2361802,9.21068153 79.0497624,9.2053323 C79.0497624,9.2053323 79.4916217,8.68244476 79.6108536,8.65436129 C79.6108536,8.65436129 78.8070905,8.55138855 78.3063166,8.73459979 C78.3063166,8.73459979 78.7622032,8.27724036 79.7637509,8.5433647 L80.3542993,8.13013645 C80.3542993,8.13013645 79.2868234,7.92419097 78.835145,8.0579218 C78.835145,8.0579218 79.376598,7.65672932 80.5071967,8.02448909 L81.1426324,7.7021978 C81.1426324,7.7021978 80.2462893,7.47218078 79.7034336,7.51363733 C79.7034336,7.51363733 80.2883711,7.24617568 81.3277925,7.61661007 L81.7794709,7.44944654 C81.7794709,7.44944654 81.1215915,7.29298147 80.928015,7.26356069 C80.7344386,7.23413991 80.7274249,7.18332219 80.7274249,7.18332219 C81.1514888,7.13693578 81.5807378,7.20359767 81.9674364,7.37589458 C81.9674364,7.37589458 82.912875,7.0883733 82.9030559,7.03220636 Z" id="Path" fill="#4EA5D9" opacity="0.1"></path>
                <path d="M128.907134,49.0322931 C128.907134,49.0322931 123.586151,48.4673901 124.02582,52.0629572 C124.02582,52.0629572 123.86709,52.68676 124.447229,53 C124.447229,53 124.471108,52.7322735 125.009106,52.8514118 C125.199017,52.8917186 125.393319,52.9101451 125.587841,52.9062957 C125.850647,52.902462 126.10484,52.8163851 126.311258,52.661326 L126.311258,52.661326 C126.311258,52.661326 127.84378,52.1432752 128.551746,49.8354726 C128.551746,49.8354726 129.009677,49.3455331 128.999844,49.2143471 L128.079769,49.5369575 C128.079769,49.5369575 128.360708,50.1714694 128.079769,50.6747952 C128.079769,50.6747952 128.109267,49.5610529 127.939299,49.5797938 C127.904182,49.5797938 127.460299,49.7712182 127.460299,49.7712182 C127.460299,49.7712182 127.932276,50.8755901 127.491202,51.6453038 C127.491202,51.6453038 127.713144,50.3240735 127.29033,49.8461817 L126.637147,50.1687921 C126.637147,50.1687921 127.199025,51.313323 126.729857,52.202175 C126.729857,52.202175 126.911063,50.8126744 126.499487,50.2477714 L125.902492,50.6493612 C125.902492,50.6493612 126.425039,51.7751512 126.030319,52.5113991 C126.030319,52.5113991 126.071056,50.8862992 125.771856,50.7497587 C125.771856,50.7497587 125.247904,51.1513484 125.160813,51.3173389 C125.160813,51.3173389 125.517606,52.1339047 125.247904,52.5421877 C125.247904,52.5421877 125.15379,51.4538794 125.030177,51.4431703 C125.030177,51.4431703 124.490774,52.1352434 124.412111,52.6238442 C124.460837,52.1708546 124.633251,51.7379355 124.912182,51.3682069 C124.620487,51.4059078 124.346899,51.5246292 124.125553,51.7095582 C124.125553,51.7095582 124.229501,51.2062324 125.044224,51.2008778 C125.044224,51.2008778 125.488107,50.6774725 125.606102,50.6506998 C125.606102,50.6506998 124.801212,50.5462865 124.299736,50.7296792 C124.299736,50.7296792 124.756261,50.2732055 125.760618,50.5395933 L126.35059,50.1259559 C126.35059,50.1259559 125.294259,49.9358701 124.834924,50.067056 C124.834924,50.067056 125.377136,49.6654663 126.50932,50.0322516 L127.145647,49.7109798 C127.145647,49.7109798 126.248047,49.480735 125.70443,49.5222326 C125.70443,49.5222326 126.290188,49.2545061 127.331067,49.6253073 L127.783378,49.4566396 C127.783378,49.4566396 127.124577,49.3000196 126.930729,49.2719083 C126.736881,49.243797 126.729857,49.1915903 126.729857,49.1915903 C127.154395,49.1443154 127.584362,49.2105977 127.971607,49.3830148 C127.971607,49.3830148 128.921181,49.0898543 128.907134,49.0322931 Z" id="Path" fill="#4EA5D9" opacity="0.1"></path>
                <path d="M136.912609,54.03212 C136.912609,54.03212 131.585689,53.4685311 132.025849,57.0629163 C132.025849,57.0629163 131.868348,57.6867463 132.447727,58 C132.447727,58 132.471634,57.7322618 133.010232,57.852744 C133.200025,57.89206 133.394011,57.9100321 133.588206,57.9062916 C133.849971,57.9011921 134.103004,57.8157356 134.309618,57.6626499 L134.309618,57.6626499 C134.309618,57.6626499 135.842443,57.1445765 136.551199,54.8353346 C136.551199,54.8353346 137.011047,54.3467124 136.999797,54.214182 L136.078695,54.5368065 C136.078695,54.5368065 136.359948,55.171346 136.078695,55.6746938 C136.078695,55.6746938 136.108227,54.5622416 135.938069,54.5796446 C135.902913,54.5796446 135.458534,54.7710774 135.458534,54.7710774 C135.458534,54.7710774 135.931038,55.8754975 135.489472,56.6452448 C135.489472,56.6452448 135.711661,55.3239568 135.288376,54.8473828 L134.634465,55.1686686 C134.634465,55.1686686 135.196969,56.3132494 134.727278,57.2021402 C134.727278,57.2021402 134.908686,55.812579 134.496651,55.2489901 L133.89899,55.6505974 C133.89899,55.6505974 134.422119,56.7764365 134.028366,57.5140552 C134.028366,57.5140552 134.067741,55.8875457 133.768207,55.7509992 C133.768207,55.7509992 133.243672,56.1526065 133.156483,56.3186042 C133.156483,56.3186042 133.513674,57.1352056 133.243672,57.5435064 C133.243672,57.5435064 133.149452,56.4551506 133.025701,56.4444411 C133.025701,56.4444411 132.485697,57.1365443 132.408352,57.6251665 C132.457036,57.1723559 132.629124,56.7395045 132.907575,56.3694744 C132.615763,56.4078626 132.342067,56.5265033 132.120068,56.7108406 C132.120068,56.7108406 132.225538,56.2074928 133.04117,56.2034767 C133.04117,56.2034767 133.484142,55.6800486 133.603675,55.6519361 C133.603675,55.6519361 132.797887,55.5488569 132.295851,55.7322575 C132.295851,55.7322575 132.752886,55.2744252 133.758363,55.5408247 L134.348993,55.1271692 C134.348993,55.1271692 133.291485,54.9370751 132.831637,55.0682668 C132.831637,55.0682668 133.374454,54.6666595 134.507901,55.0347995 L135.144938,54.712175 C135.144938,54.712175 134.246336,54.4819202 133.702113,54.5234196 C133.702113,54.5234196 134.288524,54.2556814 135.330564,54.6264988 L135.78338,54.4591624 C135.78338,54.4591624 135.123844,54.3025356 134.931186,54.2730844 C134.738528,54.2436332 134.728684,54.1927629 134.728684,54.1927629 C135.153816,54.1463285 135.584147,54.2130594 135.97182,54.3855344 C135.97182,54.3855344 136.926671,54.0896837 136.912609,54.03212 Z" id="Path" fill="#4EA5D9" opacity="0.1"></path>
                <path d="M120,12.2140848 C120,12.2140848 115.764387,9.32873052 114.250281,12.4542151 C114.250281,12.4542151 113.788138,12.890241 114.119826,13.4122083 C114.119826,13.4122083 114.278037,13.2087295 114.674952,13.5461757 C114.815541,13.6652851 114.971136,13.7687998 115.138483,13.8545535 C115.365184,13.9694037 115.626837,14.0137761 115.883739,13.9809378 L115.883739,13.9809378 C115.883739,13.9809378 117.460298,14.2577195 119.276948,12.7019284 C119.276948,12.7019284 119.92367,12.5123519 119.984734,12.4011336 L119.031305,12.2444171 C119.031305,12.2444171 118.931382,12.8851856 118.438708,13.1720781 C118.438708,13.1720781 119.047959,12.2798047 118.889748,12.2153487 C118.857828,12.2014464 118.381807,12.1521565 118.381807,12.1521565 C118.381807,12.1521565 118.202779,13.2668663 117.425602,13.6877262 C117.425602,13.6877262 118.309641,12.7133029 118.200003,12.131935 L117.474176,12.0965474 C117.474176,12.0965474 117.35066,13.2832963 116.484663,13.793889 C116.484663,13.793889 117.37009,12.7461629 117.317353,12.0990751 L116.598464,12.1521565 C116.598464,12.1521565 116.459683,13.3060455 115.729692,13.7256415 C115.729692,13.7256415 116.617894,12.4213551 116.434702,12.1736418 C116.434702,12.1736418 115.778265,12.2583194 115.615891,12.3568991 C115.615891,12.3568991 115.490988,13.1834527 115.046887,13.3932507 C115.046887,13.3932507 115.538173,12.4643258 115.438251,12.3998698 C115.438251,12.3998698 114.615276,12.7170945 114.291915,13.0785537 C114.571636,12.7324663 114.945729,12.4588803 115.377187,12.2848601 C115.108735,12.1832514 114.813571,12.1551419 114.527844,12.2039741 C114.527844,12.2039741 114.881737,11.8425149 115.57842,12.2102933 C115.57842,12.2102933 116.229305,11.986593 116.340331,12.0143976 C116.340331,12.0143976 115.708875,11.5632055 115.185668,11.4848472 C115.185668,11.4848472 115.815736,11.3205476 116.530461,11.9903846 L117.250738,11.9234009 C117.250738,11.9234009 116.451356,11.2914792 115.990601,11.1853164 C115.990601,11.1853164 116.660916,11.1082219 117.433929,11.9196093 L118.145879,11.9486777 C118.145879,11.9486777 117.501932,11.3521437 117.017585,11.1372903 C117.017585,11.1372903 117.65598,11.1878441 118.3485,11.96258 L118.821745,12.0320914 C118.821745,12.0320914 118.342948,11.6049124 118.193064,11.4936941 C118.04318,11.3824759 118.065385,11.3458245 118.065385,11.3458245 C118.450927,11.5017755 118.78144,11.7520165 119.020202,12.0687429 C119.020202,12.0687429 119.981958,12.2659024 120,12.2140848 Z" id="Path" fill="#4EA5D9" opacity="0.1"></path>
                <path d="M122,35.819292 C122,35.819292 120.668691,30.5058365 117.674513,32.4133424 C117.674513,32.4133424 117.074665,32.5192344 117,33.2068068 C117,33.2068068 117.237914,33.1212229 117.320172,33.676793 C117.350674,33.8763849 117.401648,34.0711456 117.472032,34.257023 C117.565899,34.506983 117.728575,34.7148471 117.935206,34.8488575 L117.935206,34.8488575 C117.935206,34.8488575 118.914705,36.0963518 121.174892,35.8178415 C121.174892,35.8178415 121.759555,36.0528346 121.870919,35.9890093 L121.272336,35.2434138 C121.272336,35.2434138 120.812959,35.7685219 120.281448,35.7192024 C120.281448,35.7192024 121.263478,35.2840299 121.187547,35.1288184 C121.172361,35.0969058 120.855986,34.7502184 120.855986,34.7502184 C120.855986,34.7502184 120.053657,35.6582782 119.233612,35.5523863 C119.233612,35.5523863 120.464946,35.2187541 120.735763,34.6182161 L120.229562,34.1279218 C120.229562,34.1279218 119.422172,35.1346207 118.484434,35.0562897 C118.484434,35.0562897 119.760061,34.6544805 120.11187,34.0292827 L119.55758,33.6245724 C119.55758,33.6245724 118.753986,34.5892046 117.974437,34.5166759 C117.974437,34.5166759 119.408251,33.8827747 119.425968,33.5418896 C119.425968,33.5418896 118.896988,33.2053562 118.718552,33.1937516 C118.718552,33.1937516 118.127563,33.8697195 117.678309,33.782685 C117.678309,33.782685 118.597064,33.2416206 118.564161,33.1197723 C118.564161,33.1197723 117.774487,32.8920321 117.320172,33.0182321 C117.731647,32.8783718 118.167821,32.8638729 118.585675,32.9761654 C118.451832,32.7136924 118.253859,32.5018954 118.016198,32.366924 C118.016198,32.366924 118.492027,32.2581309 118.7755,33.0341884 C118.7755,33.0341884 119.384207,33.24017 119.447482,33.335908 C119.447482,33.335908 119.261453,32.5250367 118.928626,32.1232274 C118.928626,32.1232274 119.485447,32.3698251 119.598076,33.4374482 L120.162491,33.830554 C120.162491,33.830554 119.965072,32.7426229 119.691724,32.3596711 C119.691724,32.3596711 120.225766,32.7121608 120.297899,33.9422482 L120.8041,34.4165862 C120.8041,34.4165862 120.696533,33.4650091 120.473804,32.9660114 C120.473804,32.9660114 120.907871,33.4156896 120.943305,34.5616437 L121.244495,34.9242874 C121.244495,34.9242874 121.15591,34.2309126 121.117945,34.0336345 C121.07998,33.8363563 121.117945,33.8087954 121.117945,33.8087954 C121.305212,34.1946368 121.395043,34.6326301 121.377373,35.0736966 C121.377373,35.0736966 121.954442,35.8541058 122,35.819292 Z" id="Path" fill="#4EA5D9" opacity="0.1"></path>
                <path d="M90,46.371724 C90,46.371724 87.1538903,42.3681081 84.5111737,44.7643058 C84.5111737,44.7643058 83.9065669,45.0131322 84.0124427,45.6040947 C84.0124427,45.6040947 84.2423047,45.4672402 84.4791323,45.9026864 C84.5642305,46.0570037 84.6699477,46.2015464 84.7939736,46.3331559 C84.9600792,46.5127872 85.1876891,46.6386837 85.4417665,46.6914659 L85.4417665,46.6914659 C85.4417665,46.6914659 86.8139731,47.447898 89.1265243,46.5919353 C89.1265243,46.5919353 89.8077518,46.6242828 89.9080552,46.5409259 L89.0721933,46.0930385 C89.0721933,46.0930385 88.7280968,46.6528978 88.1527452,46.758649 C88.1527452,46.758649 89.0749795,46.1365831 88.9509933,46.022123 C88.9273106,45.9997286 88.4982348,45.8031558 88.4982348,45.8031558 C88.4982348,45.8031558 87.8950212,46.7710903 87.000649,46.9116772 C87.000649,46.9116772 88.2112556,46.295832 88.3366349,45.7260196 L87.6693385,45.4635079 C87.6693385,45.4635079 87.0884144,46.5147992 86.0770216,46.7076396 C86.0770216,46.7076396 87.3168834,46.0246113 87.5188833,45.4124985 L86.8223318,45.2333435 C86.8223318,45.2333435 86.2344422,46.2497991 85.3916148,46.4053156 C85.3916148,46.4053156 86.7345663,45.4871464 86.6607318,45.2009961 C86.6607318,45.2009961 86.0115457,45.0703622 85.8248699,45.1101744 C85.8248699,45.1101744 85.3832562,45.8305267 84.8845253,45.8827802 C84.8845253,45.8827802 85.7092423,45.1835782 85.6409803,45.0915125 C85.6409803,45.0915125 84.745215,45.1226158 84.299422,45.3527801 C84.6970774,45.1227082 85.1553081,44.98973 85.6284424,44.9670993 C85.4166115,44.7880483 85.1507544,44.6682533 84.8636287,44.6224748 C84.8636287,44.6224748 85.3358907,44.4022635 85.8388009,44.9621228 C85.8388009,44.9621228 86.5353525,44.9621228 86.6314766,45.0243294 C86.6314766,45.0243294 86.2135457,44.4022635 85.7552148,44.1696109 C85.7552148,44.1696109 86.4099732,44.2193761 86.8167593,45.0666298 L87.5202764,45.2333435 C87.5202764,45.2333435 87.0173662,44.3935546 86.6259042,44.1534371 C86.6259042,44.1534371 87.284842,44.2952682 87.6930212,45.2893294 L88.3505659,45.5381558 C88.3505659,45.5381558 87.9800005,44.7854561 87.6080419,44.4333668 C87.6080419,44.4333668 88.1875728,44.6821931 88.5344555,45.6165361 L88.9523864,45.8317708 C88.9523864,45.8317708 88.6737658,45.285597 88.5748555,45.1350571 C88.4759452,44.9845171 88.5149521,44.9496814 88.5149521,44.9496814 C88.8164116,45.2156116 89.0291223,45.5511725 89.1293105,45.9188601 C89.1293105,45.9188601 89.9623862,46.4140245 90,46.371724 Z" id="Path" fill="#4EA5D9" opacity="0.1"></path>
                <path d="M109,23.4586457 C109,23.4586457 106.278703,19.4017874 103.537798,21.7104478 C103.537798,21.7104478 102.92155,21.9455204 103.008385,22.5319647 C103.008385,22.5319647 103.242279,22.4008189 103.466369,22.8400335 C103.546503,22.9961626 103.647602,23.143211 103.767491,23.2780109 C103.928323,23.4604612 104.152816,23.5909294 104.406148,23.6491782 L104.406148,23.6491782 C104.406148,23.6491782 105.757693,24.4385273 108.112042,23.6491782 C108.112042,23.6491782 108.795518,23.6999044 108.899159,23.6194848 L108.077028,23.1518141 C108.077028,23.1518141 107.712881,23.6974299 107.130246,23.7877473 C107.130246,23.7877473 108.078429,23.190168 107.959381,23.0775806 C107.93417,23.0540733 107.5112,22.8462197 107.5112,22.8462197 C107.5112,22.8462197 106.871142,23.7926962 105.970579,23.9077581 C105.970579,23.9077581 107.208678,23.3287371 107.352936,22.7670373 L106.69187,22.4923735 C106.69187,22.4923735 106.071419,23.5229813 105.047607,23.6875321 C105.047607,23.6875321 106.317919,23.0429383 106.542009,22.4404101 L105.85013,22.2424542 C105.85013,22.2424542 105.222677,23.2322336 104.371134,23.3683283 C104.371134,23.3683283 105.752091,22.4923735 105.687665,22.2065747 C105.687665,22.2065747 105.040604,22.0581078 104.847326,22.0927501 C104.847326,22.0927501 104.378137,22.7967307 103.875334,22.8350846 C103.875334,22.8350846 104.728278,22.1645091 104.663852,22.0704801 C104.663852,22.0704801 103.761889,22.0766662 103.306705,22.2931804 C103.714461,22.075914 104.179387,21.9564985 104.655449,21.9467576 C104.448431,21.7628406 104.185058,21.6364055 103.897743,21.5830137 C103.897743,21.5830137 104.380938,21.3763973 104.878138,21.9467576 C104.878138,21.9467576 105.578421,21.9677905 105.672259,22.0308889 C105.672259,22.0308889 105.275899,21.4122768 104.822116,21.1574086 C104.822116,21.1574086 105.47758,21.2242187 105.857133,22.0779034 L106.557415,22.2634871 C106.557415,22.2634871 106.082624,21.4147512 105.696068,21.1648319 C105.696068,21.1648319 106.354334,21.3244339 106.729685,22.3228738 L107.380947,22.5913515 C107.380947,22.5913515 107.035008,21.832933 106.680665,21.4778497 C106.680665,21.4778497 107.253496,21.7413784 107.571424,22.6791944 L107.98179,22.9043692 C107.98179,22.9043692 107.718483,22.3538044 107.626046,22.2016258 C107.533609,22.0494473 107.572825,22.0160422 107.572825,22.0160422 C107.866408,22.2886284 108.06859,22.6278443 108.15686,22.9959238 C108.15686,22.9959238 108.959384,23.4994741 109,23.4586457 Z" id="Path" fill="#4EA5D9"></path>
                <path d="M91.9992341,33.8844891 C91.9992341,33.8844891 92.1544416,28.2872981 88.0460987,29.0761935 C88.0460987,29.0761935 87.310415,28.9689508 87,29.6065311 C87,29.6065311 87.310415,29.6065311 87.2234988,30.1721265 C87.1950659,30.3738024 87.19194,30.5779541 87.2141864,30.7803252 C87.242244,31.0548189 87.3649623,31.3129435 87.5634033,31.5148647 L87.5634033,31.5148647 C87.5634033,31.5148647 88.3037431,33.063274 91.0369475,33.5892042 C91.0369475,33.5892042 91.6438088,34.0225826 91.7959122,33.9990773 L91.3302897,33.0706194 C91.3302897,33.0706194 90.6240955,33.4143838 90.0172341,33.1808003 C90.0172341,33.1808003 91.3054565,33.1088154 91.2697587,32.9295878 C91.2697587,32.8928608 91.0028018,32.4462608 91.0028018,32.4462608 C91.0028018,32.4462608 89.7704541,33.0412378 88.8469694,32.6504628 C88.8469694,32.6504628 90.3990446,32.7606437 90.9065731,32.2773167 L90.4735442,31.6265147 C90.4735442,31.6265147 89.2039467,32.3140437 88.1330149,31.9085779 C88.1330149,31.9085779 89.7549334,31.9702792 90.3695551,31.4898903 L89.8527141,30.9022587 C89.8527141,30.9022587 88.6001895,31.5515917 87.7124025,31.2078272 C87.7124025,31.2078272 89.5935176,31.1005844 89.7301002,30.7759179 C89.7301002,30.7759179 89.2210195,30.2661475 89.0161456,30.1882863 C89.0161456,30.1882863 88.1066296,30.62901 87.6099655,30.3910192 C87.6099655,30.3910192 88.8516257,30.1941627 88.859386,30.0634146 C88.859386,30.0634146 88.0104009,29.5653968 87.4376852,29.5286699 C87.9657938,29.5376067 88.4822039,29.6774073 88.9354377,29.9341357 C88.864725,29.6338562 88.7028913,29.3596643 88.4698152,29.1452402 C88.4698152,29.1452402 89.0611558,29.2084106 89.1418637,30.0560692 C89.1418637,30.0560692 89.789079,30.4703495 89.8309851,30.5849377 C89.8309851,30.5849377 89.8759953,29.7372791 89.6167987,29.2319159 C89.6167987,29.2319159 90.1879624,29.6652942 89.973776,30.7347837 L90.5061378,31.3136009 C90.5061378,31.3136009 90.6271996,30.1941627 90.4331902,29.7284646 C90.4331902,29.7284646 90.9422709,30.255864 90.6287517,31.4693232 L91.0586765,32.1024963 C91.0586765,32.1024963 91.2418214,31.1461259 91.1440406,30.5834686 C91.1440406,30.5834686 91.5041221,31.1711002 91.1750822,32.2890693 L91.4109976,32.7444838 C91.4109976,32.7444838 91.5305074,32.0437331 91.5460281,31.8395311 C91.5615489,31.6353292 91.6205277,31.6221075 91.6205277,31.6221075 C91.7139582,32.0603475 91.676881,32.5145419 91.5134345,32.933995 C91.5134345,32.933995 91.9309427,33.9035872 91.9992341,33.8844891 Z" id="Path" fill="#4EA5D9"></path>
                <ellipse id="Oval" fill="#4EA5D9" opacity="0.1" cx="97.5" cy="100.5" rx="3.5" ry="1"></ellipse>
                <ellipse id="Oval" fill="#4EA5D9" opacity="0.1" cx="83.5" cy="110.5" rx="3.5" ry="1"></ellipse>
                <ellipse id="Oval" fill="#4EA5D9" opacity="0.1" cx="13.5" cy="105.5" rx="3.5" ry="1"></ellipse>
                <ellipse id="Oval" fill="#4EA5D9" opacity="0.1" cx="112.5" cy="109.5" rx="3.5" ry="1"></ellipse>
                <ellipse id="Oval" fill="#4EA5D9" cx="116.5" cy="102" rx="5.5" ry="1"></ellipse>
                <path d="M119.422933,100.245758 C119.690561,100.06489 119.885385,99.820353 119.981335,99.5448709 C120.054233,99.2659711 119.911352,98.932504 119.592057,98.830645 C119.233397,98.7166598 118.849952,98.9228031 118.558358,99.1313717 C118.266764,99.3399402 117.935806,99.5788239 117.555276,99.53517 C117.952614,99.2349576 118.131856,98.7835831 118.027658,98.3456019 C118.011138,98.2563685 117.965784,98.1725434 117.896441,98.1030804 C117.696699,97.9260397 117.336581,98.002434 117.097474,98.1418838 C116.339331,98.5856982 116.127925,99.4417992 116.123552,100.213018 C116.047737,99.9353305 116.111888,99.6455173 116.11043,99.3641923 C116.108972,99.0828674 116.014204,98.7578885 115.724068,98.6099504 C115.54598,98.5273616 115.344747,98.4855199 115.140881,98.4886896 C114.799717,98.4789888 114.419187,98.5068787 114.18737,98.7142346 C113.895776,98.9713074 113.973049,99.4042084 114.223819,99.6843207 C114.47459,99.9644331 114.858035,100.145112 115.210864,100.341554 C115.493248,100.481807 115.73435,100.672805 115.91652,100.900566 C115.93728,100.932291 115.954366,100.965585 115.967549,101 L118.10493,101 C118.583426,100.799558 119.026841,100.545809 119.422933,100.245758 Z" id="Path" fill="#4EA5D9"></path>
                <path d="M11,103.143715 C11,103.143715 13.1480691,103.07894 13.7987871,102.624139 C14.4495051,102.169338 17.105554,101.627712 17.2664843,102.356772 C17.4274145,103.085831 20.4962846,105.98002 18.0697362,105.999315 C15.6431878,106.018609 12.4315796,105.627205 11.7850598,105.238557 C11.13854,104.849908 11,103.143715 11,103.143715 Z" id="Path" fill="#A8A8A8"></path>
                <path d="M18.1133428,104.735832 C15.6857623,104.756098 12.4727882,104.344999 11.8259934,103.936795 C11.3331973,103.627024 11.1371989,102.513873 11.0713994,102 L11,102 C11,102 11.1399989,103.79349 11.7825937,104.200246 C12.4251885,104.607002 15.6423627,105.019548 18.0699432,104.999283 C18.7699376,104.999283 19.0121356,104.735832 18.9995357,104.353684 C18.9015365,104.586736 18.6341387,104.73149 18.1133428,104.735832 Z" id="Path" fill="#000000" opacity="0.2"></path>
            </g>
        </g>
    </g>
</svg>