<?xml version="1.0" encoding="UTF-8"?>
<svg width="11px" height="16px" viewBox="0 0 11 16" version="1.1" xmlns="http://www.w3.org/2000/svg" xmlns:xlink="http://www.w3.org/1999/xlink">
    <title>padlock</title>
    <defs>
        <filter id="filter-1">
            <feColorMatrix in="SourceGraphic" type="matrix" values="0 0 0 0 0.288656 0 0 0 0 0.564552 0 0 0 0 0.886239 0 0 0 1.000000 0"></feColorMatrix>
        </filter>
    </defs>
    <g id="Page-1" stroke="none" stroke-width="1" fill="none" fill-rule="evenodd">
        <g id="share-folder" transform="translate(-538.000000, -370.000000)">
            <g filter="url(#filter-1)" id="padlock">
                <g transform="translate(538.000000, 370.000000)">
                    <path d="M9.625,15.3333333 L1.375,15.3333333 C0.617222222,15.3333333 0,14.7279333 0,13.9833333 L0,7.68333333 C0,6.93873333 0.617222222,6.33333333 1.375,6.33333333 L9.625,6.33333333 C10.3827778,6.33333333 11,6.93873333 11,7.68333333 L11,13.9833333 C11,14.7279333 10.3827778,15.3333333 9.625,15.3333333 Z M1.375,7.23333333 C1.12261111,7.23333333 0.916666667,7.43493333 0.916666667,7.68333333 L0.916666667,13.9833333 C0.916666667,14.2317333 1.12261111,14.4333333 1.375,14.4333333 L9.625,14.4333333 C9.87738889,14.4333333 10.0833333,14.2317333 10.0833333,13.9833333 L10.0833333,7.68333333 C10.0833333,7.43493333 9.87738889,7.23333333 9.625,7.23333333 L1.375,7.23333333 Z" id="Shape" fill="#000000" fill-rule="nonzero"></path>
                    <path d="M8.5625,7.33333333 C8.321,7.33333333 8.125,7.10933333 8.125,6.83333333 L8.125,4.33333333 C8.125,2.67933333 6.94725,1.33333333 5.5,1.33333333 C4.05275,1.33333333 2.875,2.67933333 2.875,4.33333333 L2.875,6.83333333 C2.875,7.10933333 2.679,7.33333333 2.4375,7.33333333 C2.196,7.33333333 2,7.10933333 2,6.83333333 L2,4.33333333 C2,2.12733333 3.56975,0.333333333 5.5,0.333333333 C7.43025,0.333333333 9,2.12733333 9,4.33333333 L9,6.83333333 C9,7.10933333 8.804,7.33333333 8.5625,7.33333333 Z" id="Path" fill="#000000" fill-rule="nonzero"></path>
                    <path d="M6,12.3333333 C5.4485,12.3333333 5,11.6605833 5,10.8333333 C5,10.0060833 5.4485,9.33333333 6,9.33333333 C6.5515,9.33333333 7,10.0060833 7,10.8333333 C7,11.6605833 6.5515,12.3333333 6,12.3333333 Z M6,10.4583333 C5.8625,10.4583333 5.75,10.6263333 5.75,10.8333333 C5.75,11.0403333 5.8625,11.2083333 6,11.2083333 C6.1375,11.2083333 6.25,11.0403333 6.25,10.8333333 C6.25,10.6263333 6.1375,10.4583333 6,10.4583333 Z" id="Shape" fill="#000000" fill-rule="nonzero"></path>
                    <path d="M5.5,13.3333333 C5.224,13.3333333 5,13.0961569 5,12.8039216 L5,10.8627451 C5,10.5705098 5.224,10.3333333 5.5,10.3333333 C5.776,10.3333333 6,10.5705098 6,10.8627451 L6,12.8039216 C6,13.0961569 5.776,13.3333333 5.5,13.3333333 Z" id="Path" fill="#000000" fill-rule="nonzero"></path>
                </g>
            </g>
        </g>
    </g>
</svg>